<?xml version="1.0" standalone="no"?>
<!DOCTYPE svg PUBLIC "-//W3C//DTD SVG 1.1//EN" "http://www.w3.org/Graphics/SVG/1.1/DTD/svg11.dtd" >
<svg xmlns="http://www.w3.org/2000/svg">
<metadata></metadata>
<defs>
<font id="ropa_sansitalic" horiz-adv-x="520" >
<font-face units-per-em="1000" ascent="800" descent="-200" />
<missing-glyph horiz-adv-x="300" />
<glyph horiz-adv-x="0" />
<glyph horiz-adv-x="0" />
<glyph horiz-adv-x="0" />
<glyph horiz-adv-x="0" />
<glyph horiz-adv-x="0" />
<glyph horiz-adv-x="0" />
<glyph horiz-adv-x="0" />
<glyph horiz-adv-x="0" />
<glyph unicode="&#x9;" horiz-adv-x="0" />
<glyph unicode="&#xd;" horiz-adv-x="300" />
<glyph horiz-adv-x="0" />
<glyph horiz-adv-x="0" />
<glyph horiz-adv-x="0" />
<glyph horiz-adv-x="0" />
<glyph horiz-adv-x="0" />
<glyph horiz-adv-x="0" />
<glyph horiz-adv-x="0" />
<glyph horiz-adv-x="0" />
<glyph horiz-adv-x="0" />
<glyph horiz-adv-x="0" />
<glyph unicode=" "  horiz-adv-x="300" />
<glyph unicode="&#x09;" horiz-adv-x="300" />
<glyph unicode="&#xa0;" horiz-adv-x="300" />
<glyph unicode="!" horiz-adv-x="211" d="M134 200h-81l62 495h95zM129 59l-4 -29q-6 -42 -59 -42q-27 0 -41 13.5t-11 34.5l3 23q3 26 16.5 37.5t42.5 11.5q27 0 41.5 -13.5t11.5 -35.5z" />
<glyph unicode="&#x22;" horiz-adv-x="375" d="M95 429l35 254h85l-35 -254h-85zM235 429l35 254h85l-35 -254h-85z" />
<glyph unicode="#" d="M480 125h-80l-17 -125h-85l17 125h-156l-17 -125h-85l17 125h-80l10 70h80l31 223h-80l10 70h80l18 125h85l-18 -125h156l18 125h85l-18 -125h80l-10 -70h-80l-31 -223h80zM325 195l31 223h-156l-31 -223h156z" />
<glyph unicode="$" d="M247 -94h-75l11 83q-66 7 -123 30l11 78q61 -25 121 -35q8 -1 22 -1q65 0 95 19t33 59q1 17 1 23q0 61 -76 88l-56 20q-120 43 -120 151q0 24 4 47l1 6q11 66 52 100t123 38l12 83h75l-12 -86q51 -6 103 -24l-13 -76q-63 20 -112 30q-9 1 -30 1q-100 0 -113 -77l-1 -6 q-2 -18 -2 -24q0 -63 66 -85l60 -21q127 -45 127 -153q0 -16 -3 -32l-1 -7q-10 -67 -48 -102t-121 -42z" />
<glyph unicode="%" horiz-adv-x="922" d="M724 613l-421 -613h-91l421 613h91zM399 419q-21 -156 -174 -156q-68 0 -106 36.5t-38 98.5q0 16 3 36l5 30q13 77 54.5 113t119.5 36q69 0 105.5 -34t36.5 -97q0 -22 -2 -33zM314 421l4 30q2 16 2 23q0 64 -65 64q-36 0 -56 -19.5t-26 -62.5l-4 -30q-2 -16 -2 -23 q0 -65 66 -65q36 0 55.5 19.5t25.5 63.5zM839 144q-21 -156 -174 -156q-68 0 -106 36.5t-38 98.5q0 17 3 36l5 30q13 77 54.5 113t119.5 36q69 0 105.5 -34t36.5 -97q0 -22 -2 -33zM754 146l4 30q2 16 2 23q0 64 -65 64q-36 0 -56 -19.5t-26 -62.5l-4 -30q-2 -16 -2 -23 q0 -65 66 -65q36 0 55.5 19.5t25.5 63.5z" />
<glyph unicode="&#x26;" horiz-adv-x="530" d="M283 597q-99 0 -110 -92q-3 -26 -3 -34q0 -46 31.5 -75t87.5 -29h91l10 73h82l-10 -73h74l-10 -69h-74l-38 -275q-123 -35 -198 -35q-99 0 -150.5 42t-51.5 113q0 12 4 38l3 17q9 52 50 89.5t111 52.5q-46 19 -70.5 56t-24.5 82q0 15 1 22l3 22q9 66 60.5 105.5 t137.5 39.5q50 0 126 -16l-12 -74q-66 20 -120 20zM339 75l31 223h-97q-74 0 -117 -30t-51 -82l-2 -14q-7 -50 26.5 -80.5t103.5 -30.5q52 0 106 14z" />
<glyph unicode="'" horiz-adv-x="235" d="M95 429l35 254h85l-35 -254h-85z" />
<glyph unicode="(" d="M132 65l77 551q14 98 41 134t92 36q24 0 62 -5l-10 -72q-21 4 -41 4q-27 0 -38 -15.5t-18 -62.5l-83 -589q-4 -23 -4 -43q0 -29 16 -38.5t61 -11.5l-10 -72q-87 0 -119.5 22.5t-32.5 85.5q0 25 7 76z" />
<glyph unicode=")" d="M400 603l-77 -551q-14 -98 -41 -134t-92 -36q-24 0 -62 5l10 72q21 -4 41 -4q27 0 38 15.5t18 62.5l83 589q4 23 4 43q0 29 -16 38.5t-61 11.5l10 72q87 0 119.5 -22.5t32.5 -85.5q0 -25 -7 -76z" />
<glyph unicode="*" horiz-adv-x="410" d="M276 695l-10 -112l103 44l23 -66l-111 -25l74 -84l-57 -41l-57 96l-57 -97l-56 42l74 85l-110 24l23 66l102 -43l-10 111h69z" />
<glyph unicode="+" d="M435 265h-140l-22 -152h-76l22 152h-140l10 71h140l21 152h76l-21 -152h140z" />
<glyph unicode="," horiz-adv-x="220" d="M130 30q-4 -26 -14 -49l-64 -142h-60l57 152q-30 6 -30 39q0 5 4 36q6 42 58 42q53 0 53 -40q0 -5 -4 -38z" />
<glyph unicode="-" horiz-adv-x="350" d="M281 263h-220l10 65h220z" />
<glyph unicode="." horiz-adv-x="221" d="M134 59l-4 -29q-6 -42 -59 -42q-27 0 -41 13.5t-11 34.5l3 23q3 26 16.5 37.5t42.5 11.5q27 0 41.5 -13.5t11.5 -35.5z" />
<glyph unicode="/" d="M200 0h-85l205 683h85z" />
<glyph unicode="0" d="M432 190q-28 -202 -208 -202q-81 0 -123.5 41.5t-42.5 119.5q0 13 4 47l30 215q28 202 208 202q79 0 122.5 -40.5t43.5 -120.5q0 -13 -4 -47zM346 182l32 231q2 12 2 33q0 95 -87 95q-98 0 -115 -122l-32 -231q-2 -12 -2 -33q0 -95 87 -95q98 0 115 122z" />
<glyph unicode="1" d="M394 0h-318l9 70h121l63 447h-2l-141 -55l-6 73l173 66h73l-75 -531h112z" />
<glyph unicode="2" d="M275 543q-56 0 -132 -32l10 77q75 25 136 25q78 0 120 -33.5t42 -95.5q0 -9 -2 -29l-3 -22q-6 -44 -30 -85.5t-80 -99.5l-171 -177h226l-9 -71h-327l9 62l235 256q52 58 61 114l3 20q2 16 2 23q0 68 -90 68z" />
<glyph unicode="3" d="M265 548q-44 0 -128 -21l10 69q76 17 128 17q72 0 113.5 -36.5t41.5 -96.5q0 -9 -2 -25l-1 -7q-15 -103 -104 -135q36 -16 57.5 -50.5t21.5 -78.5q0 -12 -1 -18l-1 -10q-8 -78 -59.5 -123t-141.5 -45q-66 0 -136 26l9 71q70 -29 127 -29q100 0 114 94l3 22q1 7 1 21 q0 84 -92 84h-89l10 66h89q93 0 108 105l1 7q2 14 2 20q0 73 -81 73z" />
<glyph unicode="4" d="M231 601h83l-183 -402h169l29 202h82l-29 -202h74l-9 -70h-74l-18 -129h-83l18 129h-239l-16 45z" />
<glyph unicode="5" d="M422 175q-26 -187 -213 -187q-78 0 -156 28l10 74q88 -30 149 -30q109 0 125 115l4 27q3 18 3 32q0 77 -66 77q-69 0 -137 -65h-65l50 358h308l-10 -72h-223l-28 -194q64 44 127 44q128 0 128 -137q0 -21 -3 -46z" />
<glyph unicode="6" d="M63 198l28 198q16 112 69 164t152 52q74 0 139 -18l-10 -74q-22 7 -65.5 14.5t-65.5 7.5q-60 0 -92 -34.5t-42 -108.5l-11 -77q71 67 139 67q63 0 98 -35.5t35 -103.5q0 -20 -3 -43l-5 -34q-26 -185 -199 -185q-85 0 -127.5 43t-42.5 122q0 21 3 45zM155 250l-9 -67 q-2 -16 -2 -28q0 -45 23 -70t65 -25q49 0 75.5 26.5t35.5 81.5l7 42q2 9 2 26q0 38 -19 58.5t-50 20.5q-60 0 -128 -65z" />
<glyph unicode="7" d="M123 600h361l-8 -61l-300 -539h-89l297 525v2h-271z" />
<glyph unicode="8" d="M365 319q76 -36 76 -125q0 -16 -1 -24l-2 -16q-10 -78 -63.5 -122t-145.5 -44q-87 0 -135.5 41t-48.5 111q0 9 2 27l2 15q14 105 117 142q-56 33 -56 109q0 15 4 36q24 144 179 144q74 0 117.5 -38.5t43.5 -100.5q0 -19 -3 -35q-15 -85 -86 -120zM367 439l3 19q2 14 2 20 q0 69 -82 69q-41 0 -63 -20t-29 -65l-2 -14q-2 -18 -2 -25q0 -70 77 -70q47 0 67.5 19t28.5 67zM351 155l3 20q2 16 2 22q0 42 -26 66t-74 24q-53 0 -83 -28.5t-38 -78.5q-3 -18 -3 -29q0 -42 27 -67t73 -25q105 0 119 96z" />
<glyph unicode="9" d="M434 202q-16 -114 -68.5 -164t-153.5 -50q-67 0 -131 23l10 75q23 -10 62.5 -18t60.5 -8q59 0 91 32t43 110l11 76q-81 -67 -146 -67q-59 0 -92 37t-33 110q0 20 3 46l4 31q12 90 60.5 133.5t140.5 43.5q80 0 124.5 -42.5t44.5 -120.5q0 -20 -3 -41zM369 350l11 73 q2 16 2 24q0 45 -24.5 69t-68.5 24q-50 0 -75.5 -24t-33.5 -76l-6 -39q-2 -11 -2 -30q0 -41 19 -63.5t50 -22.5q48 0 128 65z" />
<glyph unicode=":" horiz-adv-x="221" d="M134 59l-4 -29q-6 -42 -59 -42q-27 0 -41 13.5t-11 34.5l3 23q3 26 16.5 37.5t42.5 11.5q27 0 41.5 -13.5t11.5 -35.5zM179 451l-4 -29q-6 -42 -59 -42q-27 0 -41 13.5t-11 34.5l3 23q3 26 16.5 37.5t42.5 11.5q27 0 41.5 -13.5t11.5 -35.5z" />
<glyph unicode=";" horiz-adv-x="221" d="M186 451l-4 -29q-6 -42 -59 -42q-27 0 -41 13.5t-11 34.5l3 23q3 26 16.5 37.5t42.5 11.5q27 0 41.5 -13.5t11.5 -35.5zM130 30q-4 -26 -14 -49l-64 -142h-60l57 152q-30 6 -30 39q0 5 4 36q6 42 58 42q53 0 53 -40q0 -5 -4 -38z" />
<glyph unicode="&#x3c;" d="M413 99l-337 160l10 75l383 160l-12 -83l-292 -114l260 -115z" />
<glyph unicode="=" d="M422 180h-354l10 70h354zM446 351h-354l10 70h354z" />
<glyph unicode="&#x3e;" d="M436 259l-383 -160l12 83l292 115l-260 114l12 83l337 -160z" />
<glyph unicode="?" horiz-adv-x="395" d="M197 627q-60 0 -127 -28l10 73q74 23 131 23q96 0 135 -41.5t29 -111.5l-2 -15q-6 -45 -30 -83t-78 -87l-40 -36q-17 -15 -26.5 -34.5t-15.5 -59.5l-4 -27h-76l4 28q7 47 21.5 78.5t43.5 58.5l59 57q33 31 44.5 54t15.5 59l1 10q4 39 -17 60.5t-78 21.5zM178 59l-4 -29 q-6 -42 -59 -42q-27 0 -41 13.5t-11 34.5l3 23q3 26 16.5 37.5t42.5 11.5q27 0 41.5 -13.5t11.5 -35.5z" />
<glyph unicode="@" horiz-adv-x="960" d="M281 182l18 138q10 81 53 124.5t110 43.5q54 0 117 -54l5 41h80l-41 -320q-8 -65 50 -65q53 0 90 50.5t37 127.5v50q0 148 -83 224.5t-247 76.5q-147 0 -228.5 -86t-81.5 -245v-100q0 -146 78 -221.5t232 -75.5h135v-76h-135q-395 0 -395 373v100q0 187 99 297t296 110 q415 0 415 -377v-50q0 -112 -57.5 -182.5t-155.5 -70.5q-113 0 -126 94q-78 -94 -154 -94q-55 0 -84.5 33t-29.5 95q0 18 3 39zM418 91q64 0 124 91l22 181q-18 22 -44.5 35.5t-49.5 13.5q-74 0 -88 -104l-15 -115q-2 -12 -2 -32q0 -70 53 -70z" />
<glyph unicode="A" horiz-adv-x="536" d="M485 0h-91l-22 152h-239q-42 -102 -64 -152h-90l280 655h105zM301 576q-72 -191 -136 -348h195q-26 166 -59 348z" />
<glyph unicode="B" horiz-adv-x="528" d="M38 -3l82 665q107 5 164 5q105 0 160 -45.5t48 -118.5l-1 -11q-11 -117 -118 -152q54 -15 83.5 -58.5t21.5 -103.5l-2 -15q-24 -175 -244 -175q-76 0 -194 9zM159 298l-28 -230q60 -6 99 -6q78 0 116 27.5t47 83.5l2 13q8 53 -25 82.5t-107 29.5h-104zM196 591l-28 -224 h103q59 0 93 30t40 83l1 9q6 53 -25.5 79t-106.5 26q-33 0 -77 -3z" />
<glyph unicode="C" horiz-adv-x="462" d="M301 667q74 0 149 -24l-11 -80q-77 30 -140 30q-111 0 -125 -124l-33 -275q-2 -24 -2 -34q0 -51 24 -72.5t76 -21.5q65 0 150 38l-8 -80q-74 -36 -155 -36q-172 0 -172 169q0 23 3 50l31 256q25 204 213 204z" />
<glyph unicode="D" horiz-adv-x="571" d="M196 593l-65 -525q55 -7 92 -7q77 0 127.5 43.5t60.5 122.5l22 175q3 21 3 40q0 75 -40 114t-112 39q-36 0 -88 -2zM38 -3l82 665q70 5 170 5q111 0 170.5 -58.5t59.5 -163.5q0 -25 -3 -50l-21 -166q-31 -241 -281 -241q-85 0 -177 9z" />
<glyph unicode="E" horiz-adv-x="485" d="M384 0h-345l80 655h345l-10 -77h-260l-25 -207h240l-10 -76h-240l-27 -218h260z" />
<glyph unicode="F" horiz-adv-x="485" d="M454 578h-260l-25 -207h196l-10 -76h-196l-35 -295h-85l80 655h345z" />
<glyph unicode="G" horiz-adv-x="557" d="M250 -12q-97 0 -147 46.5t-50 132.5q0 20 3 41l31 257q12 103 66 152.5t160 49.5q88 0 181 -29l-10 -78q-92 34 -175 34q-63 0 -96 -29t-41 -94l-34 -278q-15 -130 115 -130q63 0 118 22l26 213h-126l11 80h210l-41 -333q-108 -57 -201 -57z" />
<glyph unicode="H" horiz-adv-x="580" d="M469 0h-85l36 300h-260l-36 -300h-85l80 655h85l-35 -279h260l35 279h85z" />
<glyph unicode="I" horiz-adv-x="235" d="M124 0h-85l80 655h85z" />
<glyph unicode="J" horiz-adv-x="312" d="M196 655h85l-64 -518q-10 -81 -43 -115t-99 -34q-45 0 -92 14l9 73q40 -14 76 -14q30 0 44.5 16t19.5 57z" />
<glyph unicode="K" horiz-adv-x="550" d="M124 0h-85l80 655h85l-37 -303q168 171 272 303h104l-288 -317l234 -338h-108q-124 200 -217 325z" />
<glyph unicode="L" horiz-adv-x="445" d="M384 0h-345l80 655h85l-72 -580h260z" />
<glyph unicode="M" horiz-adv-x="699" d="M593 0h-84l59 535l-197 -467h-104l-80 465l-69 -533h-84l86 655h121q58 -291 84 -509q107 235 209 509h133z" />
<glyph unicode="N" horiz-adv-x="582" d="M471 0h-125l-156 556l-67 -556h-84l80 655h125q88 -284 155 -555l68 555h84z" />
<glyph unicode="O" horiz-adv-x="576" d="M174 465l-32 -268q-8 -66 22.5 -100t96.5 -34q131 0 147 128l33 267q16 134 -120 134q-132 0 -147 -127zM58 208l31 249q14 108 71 159t167 51q96 0 148 -48t52 -134q0 -25 -2 -38l-31 -249q-26 -210 -238 -210q-98 0 -149.5 47.5t-51.5 132.5q0 19 3 40z" />
<glyph unicode="P" horiz-adv-x="501" d="M124 0h-85l81 662q88 5 162 5q105 0 162.5 -44.5t57.5 -123.5q0 -16 -3 -34l-2 -14q-13 -89 -73 -136.5t-165 -47.5q-39 0 -102 12zM196 594l-31 -247q54 -10 92 -10q70 0 107 29t48 90l2 11q11 60 -24.5 94.5t-110.5 34.5q-41 0 -83 -2z" />
<glyph unicode="Q" horiz-adv-x="576" d="M62 196l31 249q14 108 71 159t167 51q96 0 148 -48t52 -134q0 -25 -2 -38l-31 -249q-15 -125 -97 -176q29 -8 88 -16l-8 -79h-19l-160 63q-28 -2 -42 -2q-98 0 -149.5 47.5t-51.5 132.5q0 19 3 40zM178 453l-32 -268q-8 -66 22.5 -100t96.5 -34q131 0 147 128l33 267 q16 134 -120 134q-132 0 -147 -127z" />
<glyph unicode="R" horiz-adv-x="546" d="M289 667q110 0 166 -53.5t44 -136.5l-3 -20q-8 -56 -46.5 -99t-97.5 -62l137 -296h-97q-80 199 -127 285h-14q-37 0 -92 8l-35 -293h-85l81 662q93 5 169 5zM282 596q-32 0 -86 -2l-29 -236q53 -6 88 -6q138 0 157 113l1 6q10 60 -23.5 92.5t-107.5 32.5z" />
<glyph unicode="S" horiz-adv-x="448" d="M215 388l83 -34q111 -46 111 -155q0 -19 -3 -41l-2 -13q-24 -157 -200 -157q-94 0 -180 42l10 85q69 -35 127 -49q20 -2 43 -2q52 0 79 21.5t35 66.5l2 11q3 17 3 30q0 59 -70 88l-89 36q-53 21 -81 62t-28 96q0 25 6 52l2 9q29 131 201 131q68 0 151 -22l-11 -81 q-56 16 -109 26q-15 1 -35 1q-100 0 -112 -75l-2 -12q-13 -83 69 -116z" />
<glyph unicode="T" horiz-adv-x="515" d="M249 578h-190l10 77h465l-10 -77h-190l-70 -578h-85z" />
<glyph unicode="U" horiz-adv-x="576" d="M460 655h85l-56 -454q-14 -109 -69.5 -161t-158.5 -52q-98 0 -149.5 46t-51.5 131q0 18 3 39l56 451h85l-57 -458q-8 -63 23.5 -97.5t96.5 -34.5q61 0 94.5 31t41.5 98z" />
<glyph unicode="V" horiz-adv-x="530" d="M559 655l-274 -655h-112l-114 655h85q58 -321 89 -573q129 286 231 573h95z" />
<glyph unicode="W" horiz-adv-x="848" d="M867 655l-229 -655h-114l-68 558l-203 -558h-114l-70 655h87q33 -278 51 -562q104 262 200 562h114q44 -305 66 -562q94 250 187 562h93z" />
<glyph unicode="X" horiz-adv-x="523" d="M258 268q-132 -199 -180 -268h-99l233 341l-141 314h96q47 -108 105 -250q98 135 169 250h100l-220 -320l151 -335h-100q-50 130 -114 268z" />
<glyph unicode="Y" horiz-adv-x="495" d="M524 655l-243 -430l-27 -225h-85l27 225l-137 430h93q55 -184 94 -340q91 156 179 340h99z" />
<glyph unicode="Z" horiz-adv-x="495" d="M404 0h-395l7 67l354 511h-285l10 77h389l-9 -67q-170 -224 -355 -511h292z" />
<glyph unicode="[" d="M305 -116h-205l127 900h205l-10 -70h-120l-107 -760h120z" />
<glyph unicode="\" d="M405 0h-85l-205 683h85z" />
<glyph unicode="]" d="M305 -116h-205l10 70h120l107 760h-120l10 70h205z" />
<glyph unicode="^" horiz-adv-x="495" d="M446 403h-80l-72 201l-127 -201h-86l184 280h75z" />
<glyph unicode="_" horiz-adv-x="610" d="M478 -185h-480l10 65h480z" />
<glyph unicode="`" horiz-adv-x="385" d="M234 546l-109 139h90l90 -139h-71z" />
<glyph unicode="a" horiz-adv-x="490" d="M49 164l26 163q14 85 57.5 129t104.5 44q68 0 120 -62l7 50h80l-68 -488h-81l9 65l41 125l-2 2l-3 -1q-68 -203 -184 -203q-50 0 -80.5 34t-30.5 96q0 25 4 46zM180 64q55 0 97.5 71.5t54.5 151.5l12 86q-43 54 -96 54q-71 0 -88 -105l-24 -147q-5 -32 -5 -48 q0 -63 49 -63z" />
<glyph unicode="b" horiz-adv-x="491" d="M188 485l-59 -232l2 -2l3 2q71 247 188 247q52 0 82.5 -34.5t30.5 -100.5q0 -33 -7 -68l-24 -120q-21 -102 -64.5 -145.5t-121.5 -43.5t-119.5 39.5t-41.5 113.5q0 21 3 44l39 273q17 122 20 225h85q-2 -97 -12 -169zM302 424q-50 0 -96 -87.5t-63 -195.5 q-1 -39 19 -60.5t56 -21.5q40 0 63.5 24t34.5 79l27 130q7 32 7 59q0 73 -48 73z" />
<glyph unicode="c" horiz-adv-x="399" d="M196 -12q-70 0 -108 37t-38 107q0 20 3 41l21 148q26 179 184 179q52 0 114 -18l-12 -76q-59 22 -103 22q-82 0 -97 -100l-21 -154q-2 -12 -2 -32q0 -79 71 -79q61 0 118 33l-9 -77q-65 -31 -121 -31z" />
<glyph unicode="d" horiz-adv-x="493" d="M51 164l27 167q14 84 56 126.5t103 42.5q66 0 118 -57l33 240h85l-95 -683h-81l9 65l41 125l-2 2l-3 -1q-68 -203 -184 -203q-50 0 -80.5 34t-30.5 96q0 25 4 46zM182 64q55 0 98 71t53 149l12 90q-41 50 -95 50q-71 0 -88 -102l-24 -147q-5 -32 -5 -48q0 -63 49 -63z " />
<glyph unicode="e" horiz-adv-x="467" d="M414 375q-1 -79 -69 -134.5t-209 -67.5l-2 -14q-3 -17 -3 -29q0 -36 19.5 -51.5t60.5 -15.5q64 0 138 38l-15 -78q-75 -35 -141 -35q-70 0 -106.5 38.5t-36.5 108.5q0 20 3 44l13 89q17 113 72 172.5t134 59.5q68 0 105.5 -33.5t36.5 -91.5zM152 272l-7 -45q66 11 108 27 q77 53 77 113q0 29 -16.5 45.5t-44.5 16.5q-40 0 -73 -40.5t-44 -116.5z" />
<glyph unicode="f" horiz-adv-x="333" d="M60 -37l63 455h-74l7 50l76 14l8 57q22 156 162 156q38 0 77 -11l-9 -70q-43 12 -73 12t-47 -18.5t-24 -63.5l-8 -56h90l-10 -70h-90l-62 -450q-12 -87 -46.5 -126t-99.5 -39q-44 0 -88 14l10 71q37 -13 72 -13q29 0 44 19.5t22 68.5z" />
<glyph unicode="g" horiz-adv-x="502" d="M53 164l26 163q14 85 57.5 129t104.5 44q69 0 121 -62l7 50h80l-74 -524q-12 -85 -55 -123t-130 -38q-69 0 -143 22l10 75q75 -24 136 -24q46 0 67.5 19t28.5 62l11 71l50 162l-2 2l-3 -1q-70 -203 -185 -203q-50 0 -80.5 34t-30.5 96q0 25 4 46zM184 64q40 0 74.5 42.5 t54 95t26.5 103.5l10 67q-42 55 -97 55q-71 0 -88 -105l-24 -147q-5 -32 -5 -48q0 -63 49 -63z" />
<glyph unicode="h" horiz-adv-x="495" d="M35 0l64 458q17 122 20 225h85q-2 -97 -12 -169l-4 -29l-61 -245l3 -2l3 2q35 127 87 193.5t112 66.5q102 0 102 -121q0 -33 -5 -63l-48 -316h-85l50 318q4 24 4 46q0 57 -41 57q-55 0 -108.5 -108.5t-76.5 -282.5l-4 -30h-85z" />
<glyph unicode="i" horiz-adv-x="245" d="M125 0h-85l68 488h85zM229 646l-4 -29q-6 -42 -58 -42q-26 0 -41 13t-12 35l4 29q6 43 58 43q27 0 41.5 -13.5t11.5 -35.5z" />
<glyph unicode="j" horiz-adv-x="235" d="M112 -51q-11 -77 -46 -111.5t-104 -34.5q-43 0 -81 12l10 73q32 -12 72 -12q30 0 44 14t19 51l77 547h85zM224 646l-4 -29q-6 -42 -58 -42q-26 0 -41 13t-12 35l4 29q6 43 58 43q27 0 41.5 -13.5t11.5 -35.5z" />
<glyph unicode="k" horiz-adv-x="464" d="M188 485l-61 -245l3 -2l2 1q71 261 192 261q43 0 71.5 -30t27.5 -78q-1 -60 -38.5 -108t-111.5 -75l110 -209h-94q-57 126 -110 229q81 13 120.5 56.5t39.5 95.5q0 22 -11 35t-29 13q-34 0 -70 -54t-61 -130.5t-35 -150.5l-13 -94h-85l64 458q17 122 20 225h85 q-2 -97 -12 -169z" />
<glyph unicode="l" horiz-adv-x="235" d="M35 0l64 458q17 122 20 225h85q-2 -97 -19 -219l-65 -464h-85z" />
<glyph unicode="m" horiz-adv-x="746" d="M120 0h-85l68 488h80l-11 -79l-45 -169l3 -2l3 2q35 127 86 193.5t108 66.5q97 0 100 -108l-44 -152l3 -2l3 2q35 127 86 193.5t108 66.5q102 0 102 -121q0 -33 -5 -63l-48 -316h-85l49 313q5 37 5 53q0 31 -10 43t-30 12q-50 0 -103.5 -106.5t-77.5 -285.5l-4 -29h-85 l49 313q5 37 5 53q0 31 -10 43t-30 12q-52 0 -105 -108.5t-76 -282.5z" />
<glyph unicode="n" horiz-adv-x="495" d="M120 0h-85l68 488h80l-11 -79l-45 -169l3 -2l3 2q35 127 87 193.5t112 66.5q102 0 102 -121q0 -33 -5 -63l-48 -316h-85l50 318q4 24 4 46q0 57 -41 57q-55 0 -108.5 -108.5t-76.5 -282.5z" />
<glyph unicode="o" horiz-adv-x="492" d="M319 161l23 161q7 50 -15 78.5t-65 28.5q-88 0 -102 -102l-23 -162q-7 -49 15.5 -77.5t65.5 -28.5q86 0 101 102zM426 315l-19 -139q-12 -89 -61.5 -138.5t-130.5 -49.5q-82 0 -123.5 38t-41.5 108q0 18 3 38l20 144q12 89 62 136.5t131 47.5q80 0 121.5 -38.5 t41.5 -108.5q0 -19 -3 -38z" />
<glyph unicode="p" horiz-adv-x="489" d="M427 297l-28 -149q-30 -160 -157 -160q-65 0 -118 50q-21 -127 -47 -223h-84q30 116 54 282l56 391h80l-8 -58l-46 -176l2 -2l3 2q36 123 81.5 184.5t105.5 61.5q52 0 82.5 -35t30.5 -102q0 -24 -7 -66zM301 424q-49 0 -98 -88.5t-63 -190.5l-7 -46q43 -36 88 -36 q75 0 95 97l26 132q6 33 6 57q0 38 -13 56.5t-34 18.5z" />
<glyph unicode="q" horiz-adv-x="492" d="M51 164l26 163q14 85 57.5 129t104.5 44q67 0 120 -61l7 49h80l-95 -673h-85l31 213l50 162l-2 2l-3 -1q-68 -203 -184 -203q-50 0 -80.5 34t-30.5 96q0 25 4 46zM182 64q55 0 97.5 71.5t53.5 150.5l13 87q-41 54 -96 54q-71 0 -88 -105l-24 -147q-5 -32 -5 -48 q0 -63 49 -63z" />
<glyph unicode="r" horiz-adv-x="345" d="M120 0h-85l68 488h80l-11 -79l-45 -169l3 -2l3 2q35 127 84.5 193.5t105.5 66.5q8 0 16 -2l-16 -107q-12 3 -26 3q-60 0 -105.5 -98t-67.5 -266z" />
<glyph unicode="s" horiz-adv-x="378" d="M128 236q-78 37 -78 116q0 14 3 29l3 16q19 103 158 103q50 0 120 -20l-12 -77q-51 20 -79 26q-20 2 -36 2q-65 0 -73 -51l-1 -6q-8 -47 38 -69l82 -38q85 -39 74 -134l-2 -16q-7 -58 -49 -93.5t-112 -35.5q-75 0 -148 38l13 77q45 -25 96 -40q24 -3 39 -3q69 0 79 64 l1 6q9 47 -36 69z" />
<glyph unicode="t" horiz-adv-x="343" d="M64 139l40 279h-71l7 50l80 15l46 135h50l-18 -130h130l-10 -70h-130l-40 -286q-10 -71 49 -71q46 0 90 22l-10 -73q-44 -22 -92 -22q-63 0 -93.5 26.5t-30.5 84.5q0 19 3 40z" />
<glyph unicode="u" horiz-adv-x="498" d="M104 488h85l-46 -313q-4 -24 -4 -47q0 -64 48 -64q56 0 97 74t59 196l22 154h86l-69 -488h-80l4 28l46 162l-2 2l-3 -1q-68 -203 -184 -203q-51 0 -80.5 34t-29.5 97q0 12 4 46z" />
<glyph unicode="v" horiz-adv-x="442" d="M182 67l2 -2l3 2q94 204 175 421h93l-220 -488h-109l-83 488h83q37 -213 56 -421z" />
<glyph unicode="w" horiz-adv-x="688" d="M465 75l2 -2l3 2q68 183 131 413h90l-178 -488h-109l-42 414l-160 -414h-108l-41 488h87q15 -170 15 -373v-40l3 -2l2 2q71 171 153 413h115q27 -186 37 -413z" />
<glyph unicode="x" horiz-adv-x="461" d="M223 189l-2 2l-3 -2q-78 -117 -131 -189h-102l186 252l-108 236h94q27 -58 73 -173l2 -2l3 2q53 74 117 173h101l-174 -236l117 -252h-92q-35 91 -81 189z" />
<glyph unicode="y" horiz-adv-x="502" d="M356 190l-2 2l-3 -1q-68 -203 -184 -203q-51 0 -80.5 34t-29.5 97q0 12 4 46l47 323h85l-46 -313q-4 -24 -4 -47q0 -64 48 -64q57 0 97.5 76t58.5 195l22 153h86l-74 -524q-12 -86 -55.5 -123.5t-129.5 -37.5q-69 0 -143 22l10 75q75 -24 136 -24q46 0 68 19.5t28 61.5 l11 71z" />
<glyph unicode="z" horiz-adv-x="426" d="M341 75l-10 -75h-326l9 65l264 348h-210l10 75h321l-9 -65q-147 -165 -270 -348h221z" />
<glyph unicode="{" d="M176 61l22 158q3 17 3 30q0 27 -13 38.5t-43 11.5h-25l9 70h25q37 0 53.5 17t23.5 63l23 167q14 99 40.5 134.5t92.5 35.5q22 0 62 -5l-10 -72q-24 4 -43 4q-26 0 -36.5 -16t-17.5 -62l-26 -186q-14 -96 -75 -115q45 -16 45 -76q0 -16 -3 -39l-25 -179q-3 -22 -3 -39 q0 -30 16 -40t61 -10l-10 -70q-87 0 -120 21.5t-33 83.5q0 24 7 75z" />
<glyph unicode="|" d="M246 -112h-85l128 910h85z" />
<glyph unicode="}" d="M356 606l-22 -158q-3 -16 -3 -30q0 -27 13 -38.5t43 -11.5h25l-9 -70h-25q-37 0 -53.5 -17t-23.5 -63l-23 -167q-14 -99 -40.5 -134.5t-92.5 -35.5q-22 0 -62 5l10 72q24 -4 43 -4q26 0 36.5 16t17.5 62l26 186q14 96 75 115q-45 16 -45 76q0 17 3 39l25 179q3 23 3 39 q0 30 -16 40t-61 10l10 70q87 0 120 -21.5t33 -83.5q0 -24 -7 -75z" />
<glyph unicode="~" d="M436 279q-46 -28 -104 -28q-36 0 -77 14t-75 14q-16 0 -41.5 -6.5t-42.5 -12.5l-18 -6l10 70q46 28 104 28q36 0 78 -14t74 -14q16 0 41.5 6t42.5 12l18 7z" />
<glyph unicode="&#xa1;" horiz-adv-x="211" d="M86 310h81l-62 -495h-95zM91 451l4 29q6 42 59 42q27 0 41 -13.5t11 -34.5l-3 -23q-3 -26 -16.5 -37.5t-42.5 -11.5q-27 0 -41.5 13.5t-11.5 35.5z" />
<glyph unicode="&#xa2;" horiz-adv-x="399" d="M221 -88h-75l11 80q-107 19 -107 139q0 19 3 42l21 148q23 162 154 177l11 78h75l-11 -79q28 -4 69 -15l-12 -76q-59 22 -103 22q-82 0 -97 -100l-21 -154q-2 -12 -2 -32q0 -79 71 -79q61 0 118 33l-9 -77q-43 -21 -85 -27z" />
<glyph unicode="&#xa3;" d="M250 465l-12 -90h95l-10 -70h-95l-14 -101q-7 -55 -19.5 -82.5t-39.5 -47.5h263l-10 -74h-347l8 60q47 48 56 116l18 129h-70l10 70h70l12 85q11 80 51.5 116.5t116.5 36.5q64 0 114 -18l-10 -72q-51 20 -101 20q-40 0 -60 -18t-26 -60z" />
<glyph unicode="&#xa4;" d="M455 149l-63 -56l-54 63q-44 -24 -102 -24q-57 0 -94 22l-68 -61l-49 56l71 61q-12 29 -12 63q0 8 2 30l3 20q7 51 31 87l-50 57l64 56l46 -55q47 26 107 26q62 0 101 -28l64 57l48 -56l-69 -60q8 -26 8 -50q0 -16 -3 -34l-3 -20q-7 -49 -34 -90zM351 303l3 20 q14 98 -77 98q-47 0 -73.5 -27t-32.5 -71l-3 -20q-14 -99 78 -99q91 0 105 99z" />
<glyph unicode="&#xa5;" d="M366 78h-94l-10 -78h-85l10 78h-95l10 70h94l6 41h-94l10 70h65l-112 342h91q48 -144 91 -321q108 178 183 321h100l-212 -342h67l-9 -70h-96l-5 -41h95z" />
<glyph unicode="&#xa6;" d="M316 388h-85l58 410h85zM246 -112h-85l57 410h85z" />
<glyph unicode="&#xa7;" horiz-adv-x="403" d="M386 274q-5 -45 -38.5 -76.5t-86.5 -42.5q59 -39 59 -114q0 -15 -1 -22l-2 -17q-14 -120 -167 -120q-52 0 -122 20l12 77q53 -20 81 -26q20 -2 36 -2q74 0 81 61l1 9q0 3 0.5 7t0.5 6q0 45 -40 63l-98 44q-88 39 -88 126q0 13 3 36q7 45 40 76.5t84 42.5q-59 37 -59 110 q0 11 4 43q14 120 158 120q52 0 122 -20l-12 -77q-53 20 -81 26q-20 2 -36 2q-65 0 -72 -61l-1 -9q0 -3 -0.5 -7t-0.5 -6q0 -45 40 -63l98 -44q88 -40 88 -125q0 -14 -3 -37zM99 295q-2 -10 -2 -18q0 -46 48 -68l28 -13h6q48 0 82.5 22t42.5 64q2 10 2 18q0 47 -48 68 l-28 12h-9q-47 0 -81.5 -22t-40.5 -63z" />
<glyph unicode="&#xa8;" horiz-adv-x="431" d="M235 648l-4 -29q-6 -42 -56 -42q-26 0 -41 13t-12 34l4 28q6 43 57 43q27 0 41 -12.5t11 -34.5zM407 648l-4 -29q-6 -42 -56 -42q-26 0 -41 13t-12 34l4 28q6 43 57 43q27 0 41 -12.5t11 -34.5z" />
<glyph unicode="&#xa9;" horiz-adv-x="646" d="M492 185l29 212q2 18 2 25q0 60 -44 94t-125 34q-177 0 -196 -134l-29 -212q-2 -16 -2 -24q0 -61 44 -95t126 -34q87 0 136.5 34.5t58.5 99.5zM591 390l-27 -197q-14 -104 -79.5 -156t-190.5 -52q-118 0 -178.5 51.5t-60.5 137.5q0 17 3 37l27 197q14 106 80.5 157 t190.5 51q116 0 176.5 -51.5t60.5 -139.5q0 -23 -2 -35zM313 129q-57 0 -87.5 31t-30.5 89q0 19 3 38l8 56q10 73 46 105t103 32q39 0 78 -12l-11 -68q-39 14 -68 14q-58 0 -68 -76l-7 -55q-2 -18 -2 -25q0 -61 45 -61q40 0 79 15l-7 -66q-46 -17 -81 -17z" />
<glyph unicode="&#xaa;" d="M95 393l18 105q13 83 55 126t106 43q65 0 120 -59l7 47h80l-59 -429h-81l8 58l41 125l-2 2l-3 -1q-67 -196 -183 -196q-51 0 -81 36t-30 98q0 24 4 45zM226 290q55 0 97.5 70.5t53.5 151.5l4 28q-41 51 -93 51q-38 0 -60 -22.5t-31 -78.5l-15 -86q-5 -32 -5 -49 q0 -65 49 -65zM389 0h-339l10 73h339z" />
<glyph unicode="&#xab;" horiz-adv-x="488" d="M192 488h89l-117 -170l69 -170h-84l-80 170zM361 488h90l-117 -170l69 -170h-85l-79 170z" />
<glyph unicode="&#xac;" d="M415 113h-76l22 152h-285l10 70h361z" />
<glyph unicode="&#xad;" horiz-adv-x="350" d="M281 263h-220l10 65h220z" />
<glyph unicode="&#xae;" horiz-adv-x="536" d="M491 501l-4 -33q-12 -87 -59.5 -128t-149.5 -41q-89 0 -133.5 41.5t-44.5 113.5q0 18 3 38l5 34q12 88 56.5 128.5t145.5 40.5q183 0 183 -156q0 -25 -2 -38zM438 461l7 53q9 64 -25.5 100.5t-110.5 36.5t-110 -27.5t-42 -90.5l-7 -52q-9 -64 23.5 -101t107.5 -37 q76 0 112 27.5t45 90.5zM250 382h-43l33 230q45 5 71 5q45 0 67 -22.5t16 -57.5l-1 -6q-8 -43 -54 -59l44 -90h-49q-17 47 -38 84q-18 0 -34 3zM308 579q-15 0 -31 -2l-9 -72q20 -2 34 -2q40 0 47 32l1 5q3 17 -7.5 28t-34.5 11z" />
<glyph unicode="&#xaf;" horiz-adv-x="385" d="M345 606h-215l10 75h215z" />
<glyph unicode="&#xb0;" horiz-adv-x="600" d="M438 492q-12 -84 -56 -124.5t-126 -40.5q-72 0 -112 38t-40 106q0 17 3 37l3 22q12 84 56 124.5t126 40.5q72 0 112 -38t40 -106q0 -17 -3 -37zM357 495l3 22q7 52 -12.5 79.5t-60.5 27.5q-83 0 -96 -97l-3 -22q-7 -47 10.5 -77t62.5 -30q82 0 96 97z" />
<glyph unicode="&#xb1;" d="M397 0h-356l9 70h356zM435 265h-140l-22 -152h-76l22 152h-140l10 71h140l21 152h76l-21 -152h140z" />
<glyph unicode="&#xb2;" horiz-adv-x="390" d="M210 546q-51 0 -100 -21l9 66q59 19 105 19q74 0 104.5 -30.5t23.5 -84.5l-1 -8q-8 -65 -85 -136l-114 -106h165l-9 -64h-256l8 56l172 174q39 39 43 74l1 9q3 26 -12.5 39t-53.5 13z" />
<glyph unicode="&#xb3;" horiz-adv-x="390" d="M200 552q-39 0 -91 -13l9 59q58 12 96 12q65 0 95 -31t23 -83l-1 -7q-8 -65 -74 -90q33 -13 49.5 -41t11.5 -61l-1 -7q-16 -117 -155 -117q-51 0 -103 18l8 60q52 -18 98 -18q65 0 73 59l1 8q8 69 -67 69h-58l9 58h58q37 0 55 13.5t22 46.5l1 7q8 58 -59 58z" />
<glyph unicode="&#xb4;" horiz-adv-x="311" d="M291 685l-109 -139h-71l90 139h90z" />
<glyph unicode="&#xb5;" horiz-adv-x="498" d="M104 488h85l-46 -313q-4 -24 -4 -47q0 -64 48 -64q56 0 97 74t59 196l22 154h86l-69 -488h-80l4 28l46 162l-2 2l-3 -1q-68 -203 -184 -203q-26 0 -44 19q-22 -121 -42 -192h-84q30 116 54 282l16 110z" />
<glyph unicode="&#xb6;" horiz-adv-x="546" d="M213 -185h-86l70 497h-42q-60 0 -91.5 37t-22.5 100l17 121q17 113 139 113h138zM440 683h86l-122 -868h-86zM126 462q-5 -40 6 -57t38 -17h37l31 222h-41q-28 0 -41.5 -14t-18.5 -52z" />
<glyph unicode="&#xb7;" horiz-adv-x="221" d="M134 260l-4 -29q-6 -42 -59 -42q-27 0 -41 13.5t-11 34.5l3 23q3 26 16.5 37.5t42.5 11.5q27 0 41.5 -13.5t11.5 -35.5z" />
<glyph unicode="&#xb8;" horiz-adv-x="299" d="M106 28l-30 -69h2q28 0 44 -20t12 -51l-1 -9q-9 -76 -95 -76q-28 0 -59 9l7 55q23 -10 45 -10q31 0 35 23l1 7q2 16 -6.5 24.5t-27.5 8.5h-26l3 20l41 88h55z" />
<glyph unicode="&#xb9;" horiz-adv-x="390" d="M316 181h-252l9 64h92l41 284l-105 -42l-6 67l135 48h66l-50 -357h79z" />
<glyph unicode="&#xba;" d="M391 0h-342l10 73h342zM365 388l16 103q7 50 -14.5 77.5t-65.5 27.5q-87 0 -102 -102l-16 -102q-8 -50 14.5 -78t66.5 -28q89 0 101 102zM464 482l-13 -88q-13 -89 -57.5 -134t-132.5 -45q-80 0 -122.5 39t-42.5 108q0 18 3 38l14 89q13 88 58 133t134 45q80 0 121 -39 t41 -108q0 -18 -3 -38z" />
<glyph unicode="&#xbb;" horiz-adv-x="488" d="M136 148h-91l117 170l-69 170h83l81 -170zM305 148h-90l117 170l-69 170h82l82 -170z" />
<glyph unicode="&#xbc;" horiz-adv-x="1019" d="M354 0h-83l389 601h83zM784 421h76l-131 -269h105l19 134h76l-19 -134h56l-8 -62h-56l-13 -90h-77l13 90h-171l-15 42zM316 181h-252l9 64h92l41 284l-105 -42l-6 67l135 48h66l-50 -357h79z" />
<glyph unicode="&#xbd;" horiz-adv-x="1011" d="M354 0h-83l389 601h83zM806 365q-51 0 -100 -21l9 66q59 19 105 19q74 0 104.5 -30.5t23.5 -84.5l-1 -8q-8 -65 -85 -136l-114 -106h165l-9 -64h-256l8 56l172 174q39 39 43 74l1 9q3 26 -12.5 39t-53.5 13zM316 181h-252l9 64h92l41 284l-105 -42l-6 67l135 48h66 l-50 -357h79z" />
<glyph unicode="&#xbe;" horiz-adv-x="1000" d="M335 0h-83l389 601h83zM766 421h76l-131 -269h105l19 134h76l-19 -134h56l-8 -62h-56l-13 -90h-77l13 90h-171l-15 42zM200 552q-39 0 -91 -13l9 59q58 12 96 12q65 0 95 -31t23 -83l-1 -7q-8 -65 -74 -90q33 -13 49.5 -41t11.5 -61l-1 -7q-16 -117 -155 -117 q-51 0 -103 18l8 60q52 -18 98 -18q65 0 73 59l1 8q8 69 -67 69h-58l9 58h58q37 0 55 13.5t22 46.5l1 7q8 58 -59 58z" />
<glyph unicode="&#xbf;" horiz-adv-x="395" d="M198 -129q60 0 127 28l-10 -73q-74 -23 -131 -23q-96 0 -135 41.5t-29 111.5l2 15q6 45 30 83t78 87l40 36q17 15 26.5 34.5t15.5 59.5l4 27h76l-4 -28q-7 -47 -21.5 -78.5t-43.5 -58.5l-59 -57q-33 -31 -44.5 -54t-15.5 -59l-1 -10q-4 -39 17 -60.5t78 -21.5zM217 439 l4 29q6 42 59 42q27 0 41 -13.5t11 -34.5l-3 -23q-3 -26 -16.5 -37.5t-42.5 -11.5q-27 0 -41.5 13.5t-11.5 35.5z" />
<glyph unicode="&#xc0;" horiz-adv-x="536" d="M485 0h-91l-22 152h-239q-42 -102 -64 -152h-90l280 655h105zM301 576q-72 -191 -136 -348h195q-26 166 -59 348zM301 710l-71 119h89l52 -119h-70z" />
<glyph unicode="&#xc1;" horiz-adv-x="536" d="M485 0h-91l-22 152h-239q-42 -102 -64 -152h-90l280 655h105zM301 576q-72 -191 -136 -348h195q-26 166 -59 348zM424 829l-99 -119h-70l80 119h89z" />
<glyph unicode="&#xc2;" horiz-adv-x="536" d="M485 0h-91l-22 152h-239q-42 -102 -64 -152h-90l280 655h105zM301 576q-72 -191 -136 -348h195q-26 166 -59 348zM326 760l-146 -49l8 68l148 61l132 -61l-8 -68z" />
<glyph unicode="&#xc3;" horiz-adv-x="536" d="M485 0h-91l-22 152h-239q-42 -102 -64 -152h-90l280 655h105zM301 576q-72 -191 -136 -348h195q-26 166 -59 348zM464 740q-38 -30 -84 -30q-22 0 -60.5 12.5t-58.5 12.5q-15 0 -35 -6.5t-33 -12.5l-13 -6l8 70q38 30 84 30q29 0 65.5 -12.5t53.5 -12.5q15 0 35 6.5 t33 12.5l13 6z" />
<glyph unicode="&#xc4;" horiz-adv-x="536" d="M485 0h-91l-22 152h-239q-42 -102 -64 -152h-90l280 655h105zM301 576q-72 -191 -136 -348h195q-26 166 -59 348zM294 781l-4 -29q-4 -42 -55 -42q-26 0 -41 13t-13 34l4 28q4 43 56 43q27 0 41 -12.5t12 -34.5zM466 781l-4 -29q-5 -42 -55 -42q-26 0 -41 13t-13 34l4 28 q4 43 56 43q27 0 41 -12.5t12 -34.5z" />
<glyph unicode="&#xc5;" horiz-adv-x="536" d="M485 0h-91l-22 152h-239q-42 -102 -64 -152h-90l263 615q-41 25 -41 73q-1 56 32.5 84t92.5 28q48 0 77 -22t30 -63q0 -79 -61 -104zM301 576q-72 -191 -136 -348h195q-26 166 -59 348zM322 745q-55 0 -55 -50q0 -40 46 -40q29 0 42.5 14t12.5 39q0 37 -46 37z" />
<glyph unicode="&#xc6;" horiz-adv-x="774" d="M673 0h-345l18 152h-187l-92 -152h-92l388 655h390l-10 -77h-260l-25 -207h240l-10 -76h-240l-27 -218h260zM398 573q-86 -162 -194 -345h152z" />
<glyph unicode="&#xc7;" horiz-adv-x="462" d="M301 667q74 0 149 -24l-11 -80q-77 30 -140 30q-111 0 -125 -124l-33 -275q-2 -24 -2 -34q0 -51 24 -72.5t76 -21.5q65 0 150 38l-8 -80q-57 -28 -134 -35l-13 -30h2q28 0 44 -20t12 -51l-1 -9q-9 -76 -95 -76q-28 0 -59 9l7 55q23 -10 45 -10q31 0 35 23l1 7 q2 16 -6.5 24.5t-27.5 8.5h-26l3 20l23 50q-137 15 -137 166q0 24 3 51l31 256q25 204 213 204z" />
<glyph unicode="&#xc8;" horiz-adv-x="485" d="M384 0h-345l80 655h345l-10 -77h-260l-25 -207h240l-10 -76h-240l-27 -218h260zM295 710l-71 119h89l52 -119h-70z" />
<glyph unicode="&#xc9;" horiz-adv-x="485" d="M384 0h-345l80 655h345l-10 -77h-260l-25 -207h240l-10 -76h-240l-27 -218h260zM414 829l-99 -119h-70l80 119h89z" />
<glyph unicode="&#xca;" horiz-adv-x="485" d="M384 0h-345l80 655h345l-10 -77h-260l-25 -207h240l-10 -76h-240l-27 -218h260zM320 760l-146 -49l8 68l148 61l132 -61l-8 -68z" />
<glyph unicode="&#xcb;" horiz-adv-x="485" d="M384 0h-345l80 655h345l-10 -77h-260l-25 -207h240l-10 -76h-240l-27 -218h260zM271 781l-4 -29q-5 -42 -55 -42q-26 0 -41 13t-13 34l4 28q4 43 56 43q27 0 41 -12.5t12 -34.5zM443 781l-4 -29q-4 -42 -55 -42q-26 0 -41 13t-13 34l4 28q4 43 56 43q27 0 41 -12.5 t12 -34.5z" />
<glyph unicode="&#xcc;" horiz-adv-x="235" d="M124 0h-85l80 655h85zM152 710l-71 119h89l52 -119h-70z" />
<glyph unicode="&#xcd;" horiz-adv-x="235" d="M124 0h-85l80 655h85zM274 829l-99 -119h-70l80 119h89z" />
<glyph unicode="&#xce;" horiz-adv-x="235" d="M124 0h-85l80 655h85zM172 760l-146 -49l8 68l148 61l132 -61l-8 -68z" />
<glyph unicode="&#xcf;" horiz-adv-x="235" d="M124 0h-85l80 655h85zM142 781l-4 -29q-4 -42 -55 -42q-26 0 -41 13t-13 34l4 28q4 43 56 43q27 0 41 -12.5t12 -34.5zM314 781l-4 -29q-4 -42 -55 -42q-26 0 -41 13t-13 34l4 28q4 43 56 43q27 0 41 -12.5t12 -34.5z" />
<glyph unicode="&#xd0;" horiz-adv-x="571" d="M38 -3l38 306h-71l10 70h69l36 289q70 5 170 5q111 0 170.5 -58.5t59.5 -163.5q0 -25 -3 -50l-21 -166q-31 -241 -281 -241q-85 0 -177 9zM196 593l-28 -220h137l-10 -70h-135l-29 -235q55 -7 92 -7q77 0 127.5 43.5t60.5 122.5l22 175q3 21 3 40q0 75 -40 114t-112 39 q-36 0 -88 -2z" />
<glyph unicode="&#xd1;" horiz-adv-x="580" d="M470 0h-125l-156 556l-67 -556h-84l80 655h125q88 -284 155 -555l68 555h84zM487 740q-38 -30 -84 -30q-22 0 -60.5 12.5t-58.5 12.5q-15 0 -35 -6.5t-33 -12.5l-13 -6l8 70q38 30 84 30q29 0 65.5 -12.5t53.5 -12.5q15 0 35 6.5t33 12.5l13 6z" />
<glyph unicode="&#xd2;" horiz-adv-x="576" d="M174 465l-32 -268q-8 -66 22.5 -100t96.5 -34q131 0 147 128l33 267q16 134 -120 134q-132 0 -147 -127zM58 208l31 249q14 108 71 159t167 51q96 0 148 -48t52 -134q0 -25 -2 -38l-31 -249q-26 -210 -238 -210q-98 0 -149.5 47.5t-51.5 132.5q0 19 3 40zM321 710 l-71 119h89l52 -119h-70z" />
<glyph unicode="&#xd3;" horiz-adv-x="576" d="M174 465l-32 -268q-8 -66 22.5 -100t96.5 -34q131 0 147 128l33 267q16 134 -120 134q-132 0 -147 -127zM58 208l31 249q14 108 71 159t167 51q96 0 148 -48t52 -134q0 -25 -2 -38l-31 -249q-26 -210 -238 -210q-98 0 -149.5 47.5t-51.5 132.5q0 19 3 40zM444 829 l-99 -119h-70l80 119h89z" />
<glyph unicode="&#xd4;" horiz-adv-x="576" d="M174 465l-32 -268q-8 -66 22.5 -100t96.5 -34q131 0 147 128l33 267q16 134 -120 134q-132 0 -147 -127zM58 208l31 249q14 108 71 159t167 51q96 0 148 -48t52 -134q0 -25 -2 -38l-31 -249q-26 -210 -238 -210q-98 0 -149.5 47.5t-51.5 132.5q0 19 3 40zM344 760 l-146 -49l8 68l148 61l132 -61l-8 -68z" />
<glyph unicode="&#xd5;" horiz-adv-x="576" d="M174 465l-32 -268q-8 -66 22.5 -100t96.5 -34q131 0 147 128l33 267q16 134 -120 134q-132 0 -147 -127zM58 208l31 249q14 108 71 159t167 51q96 0 148 -48t52 -134q0 -25 -2 -38l-31 -249q-26 -210 -238 -210q-98 0 -149.5 47.5t-51.5 132.5q0 19 3 40zM482 740 q-38 -30 -84 -30q-22 0 -60.5 12.5t-58.5 12.5q-15 0 -35 -6.5t-33 -12.5l-13 -6l8 70q38 30 84 30q29 0 65.5 -12.5t53.5 -12.5q15 0 35 6.5t33 12.5l13 6z" />
<glyph unicode="&#xd6;" horiz-adv-x="576" d="M174 465l-32 -268q-8 -66 22.5 -100t96.5 -34q131 0 147 128l33 267q16 134 -120 134q-132 0 -147 -127zM58 208l31 249q14 108 71 159t167 51q96 0 148 -48t52 -134q0 -25 -2 -38l-31 -249q-26 -210 -238 -210q-98 0 -149.5 47.5t-51.5 132.5q0 19 3 40zM316 781l-4 -29 q-4 -42 -55 -42q-26 0 -41 13t-13 34l4 28q4 43 56 43q27 0 41 -12.5t12 -34.5zM488 781l-4 -29q-4 -42 -55 -42q-26 0 -41 13t-13 34l4 28q4 43 56 43q27 0 41 -12.5t12 -34.5z" />
<glyph unicode="&#xd7;" d="M434 408l-121 -106l93 -108l-62 -53l-93 107l-119 -105l-43 50l119 105l-91 108l60 54l93 -108l121 106z" />
<glyph unicode="&#xd8;" horiz-adv-x="576" d="M58 208l31 249q14 108 71 159t167 51q79 0 130 -34l51 72h89l-91 -126q21 -39 21 -95q0 -11 -2 -37l-31 -249q-26 -210 -238 -210q-84 0 -133 34l-54 -72h-89l93 129q-18 38 -18 88q0 20 3 41zM441 458q2 25 1 36l-275 -399q30 -32 94 -32q131 0 147 128zM174 465 l-32 -268q-2 -11 -2 -31l274 396q-30 30 -93 30q-132 0 -147 -127z" />
<glyph unicode="&#xd9;" horiz-adv-x="576" d="M460 655h85l-56 -454q-14 -109 -69.5 -161t-158.5 -52q-98 0 -149.5 46t-51.5 131q0 18 3 39l56 451h85l-57 -458q-8 -63 23.5 -97.5t96.5 -34.5q61 0 94.5 31t41.5 98zM329 710l-71 119h89l52 -119h-70z" />
<glyph unicode="&#xda;" horiz-adv-x="576" d="M460 655h85l-56 -454q-14 -109 -69.5 -161t-158.5 -52q-98 0 -149.5 46t-51.5 131q0 18 3 39l56 451h85l-57 -458q-8 -63 23.5 -97.5t96.5 -34.5q61 0 94.5 31t41.5 98zM459 829l-99 -119h-70l80 119h89z" />
<glyph unicode="&#xdb;" horiz-adv-x="576" d="M460 655h85l-56 -454q-14 -109 -69.5 -161t-158.5 -52q-98 0 -149.5 46t-51.5 131q0 18 3 39l56 451h85l-57 -458q-8 -63 23.5 -97.5t96.5 -34.5q61 0 94.5 31t41.5 98zM354 760l-146 -49l8 68l148 61l132 -61l-8 -68z" />
<glyph unicode="&#xdc;" horiz-adv-x="576" d="M460 655h85l-56 -454q-14 -109 -69.5 -161t-158.5 -52q-98 0 -149.5 46t-51.5 131q0 18 3 39l56 451h85l-57 -458q-8 -63 23.5 -97.5t96.5 -34.5q61 0 94.5 31t41.5 98zM324 781l-4 -29q-4 -42 -55 -42q-26 0 -41 13t-13 34l4 28q4 43 56 43q27 0 41 -12.5t12 -34.5z M496 781l-4 -29q-5 -42 -55 -42q-26 0 -41 13t-13 34l4 28q4 43 56 43q27 0 41 -12.5t12 -34.5z" />
<glyph unicode="&#xdd;" horiz-adv-x="495" d="M524 655l-243 -430l-27 -225h-85l27 225l-137 430h93q55 -184 94 -340q91 156 179 340h99zM411 829l-99 -119h-70l80 119h89z" />
<glyph unicode="&#xde;" horiz-adv-x="560" d="M120 0h-85l92 655h85l-17 -120q58 2 81 2q105 0 159 -43.5t54 -122.5q0 -18 -3 -36l-2 -15q-31 -183 -242 -183q-40 0 -101 11zM185 464l-35 -247q55 -9 91 -9q138 0 159 124l2 12q9 58 -24.5 90t-109.5 32q-41 0 -83 -2z" />
<glyph unicode="&#xdf;" horiz-adv-x="485" d="M120 0h-85l58 418h-73l7 50l75 14l5 31q16 97 55.5 139.5t116.5 42.5q74 0 115 -38.5t34 -99.5l-1 -9q-5 -37 -22 -63.5t-35 -38.5t-34 -29.5t-19 -36.5l-1 -7q-4 -38 22 -56l44 -30q71 -49 61 -145l-1 -9q-8 -69 -44 -107t-100 -38q-57 0 -109 22l11 72q46 -17 72 -23 q7 -1 20 -1q23 0 41 19t22 52l3 22q6 49 -31 73l-45 30q-55 37 -49 113l1 9q3 31 19.5 55t34.5 36.5t34.5 31.5t19.5 42l2 16q4 29 -15 48.5t-55 19.5q-37 0 -54.5 -18.5t-23.5 -62.5z" />
<glyph unicode="&#xe0;" horiz-adv-x="490" d="M49 164l26 163q14 85 57.5 129t104.5 44q68 0 120 -62l7 50h80l-68 -488h-81l9 65l41 125l-2 2l-3 -1q-68 -203 -184 -203q-50 0 -80.5 34t-30.5 96q0 25 4 46zM180 64q55 0 97.5 71.5t54.5 151.5l12 86q-43 54 -96 54q-71 0 -88 -105l-24 -147q-5 -32 -5 -48 q0 -63 49 -63zM281 546l-109 139h90l90 -139h-71z" />
<glyph unicode="&#xe1;" horiz-adv-x="490" d="M49 164l26 163q14 85 57.5 129t104.5 44q68 0 120 -62l7 50h80l-68 -488h-81l9 65l41 125l-2 2l-3 -1q-68 -203 -184 -203q-50 0 -80.5 34t-30.5 96q0 25 4 46zM180 64q55 0 97.5 71.5t54.5 151.5l12 86q-43 54 -96 54q-71 0 -88 -105l-24 -147q-5 -32 -5 -48 q0 -63 49 -63zM400 685l-109 -139h-71l90 139h90z" />
<glyph unicode="&#xe2;" horiz-adv-x="490" d="M49 164l26 163q14 85 57.5 129t104.5 44q68 0 120 -62l7 50h80l-68 -488h-81l9 65l41 125l-2 2l-3 -1q-68 -203 -184 -203q-50 0 -80.5 34t-30.5 96q0 25 4 46zM180 64q55 0 97.5 71.5t54.5 151.5l12 86q-43 54 -96 54q-71 0 -88 -105l-24 -147q-5 -32 -5 -48 q0 -63 49 -63zM282 611l-139 -65l10 72l140 72l120 -76l-10 -68z" />
<glyph unicode="&#xe3;" horiz-adv-x="490" d="M49 164l26 163q14 85 57.5 129t104.5 44q68 0 120 -62l7 50h80l-68 -488h-81l9 65l41 125l-2 2l-3 -1q-68 -203 -184 -203q-50 0 -80.5 34t-30.5 96q0 25 4 46zM180 64q55 0 97.5 71.5t54.5 151.5l12 86q-43 54 -96 54q-71 0 -88 -105l-24 -147q-5 -32 -5 -48 q0 -63 49 -63zM417 613q-38 -28 -84 -28q-20 0 -50.5 12.5t-48.5 12.5q-15 0 -35 -6t-33 -12l-13 -7l10 68q38 32 84 32q27 0 55 -12.5t43 -12.5t35.5 6t33.5 12l13 7z" />
<glyph unicode="&#xe4;" horiz-adv-x="490" d="M49 164l26 163q14 85 57.5 129t104.5 44q68 0 120 -62l7 50h80l-68 -488h-81l9 65l41 125l-2 2l-3 -1q-68 -203 -184 -203q-50 0 -80.5 34t-30.5 96q0 25 4 46zM180 64q55 0 97.5 71.5t54.5 151.5l12 86q-43 54 -96 54q-71 0 -88 -105l-24 -147q-5 -32 -5 -48 q0 -63 49 -63zM258 648l-4 -29q-6 -42 -56 -42q-26 0 -41 13t-12 34l4 28q6 43 57 43q27 0 41 -12.5t11 -34.5zM430 648l-4 -29q-6 -42 -56 -42q-26 0 -41 13t-12 34l4 28q6 43 57 43q27 0 41 -12.5t11 -34.5z" />
<glyph unicode="&#xe5;" horiz-adv-x="490" d="M49 164l26 163q14 85 57.5 129t104.5 44q68 0 120 -62l7 50h80l-68 -488h-81l9 65l41 125l-2 2l-3 -1q-68 -203 -184 -203q-50 0 -80.5 34t-30.5 96q0 25 4 46zM180 64q55 0 97.5 71.5t54.5 151.5l12 86q-43 54 -96 54q-71 0 -88 -105l-24 -147q-5 -32 -5 -48 q0 -63 49 -63zM294 723q47 0 77 -24.5t30 -64.5q0 -47 -31 -76t-88 -29q-46 0 -76.5 24.5t-30.5 65.5q0 48 31.5 76t87.5 28zM292 672q-30 0 -42.5 -11.5t-12.5 -37.5q0 -19 13 -31t36 -12q30 0 42 12t12 40q0 40 -48 40z" />
<glyph unicode="&#xe6;" horiz-adv-x="725" d="M34 164l27 167q13 83 54.5 126t103.5 43q42 0 84 -27t63 -65q58 92 159 92q65 0 101 -32.5t36 -85.5q0 -174 -280 -207l-3 -16q-18 -96 88 -96q30 0 73.5 12t73.5 26l-15 -77q-77 -36 -144 -36q-79 0 -115.5 40t-34.5 109q-64 -149 -164 -149q-51 0 -81 34.5t-30 96.5 q0 24 4 45zM314 259q10 56 27 100q-16 28 -45.5 46.5t-56.5 18.5q-39 0 -62 -23.5t-32 -77.5l-24 -148q-5 -32 -5 -48q0 -63 49 -63q37 0 71 38t52 79.5t26 77.5zM397 276l-6 -41q85 14 135.5 51.5t50.5 83.5q0 27 -17.5 43t-51.5 16q-39 0 -69.5 -40.5t-41.5 -112.5z" />
<glyph unicode="&#xe7;" horiz-adv-x="399" d="M317 19q-58 -28 -115 -31l-12 -29h2q28 0 44 -20t12 -51l-1 -9q-9 -76 -95 -76q-28 0 -59 9l7 55q23 -10 45 -10q31 0 35 23l1 7q2 16 -6.5 24.5t-27.5 8.5h-26l3 20l24 53q-98 23 -98 139q0 20 3 41l21 148q26 179 184 179q52 0 114 -18l-12 -76q-59 22 -103 22 q-82 0 -97 -100l-21 -154q-2 -12 -2 -32q0 -79 71 -79q61 0 118 33z" />
<glyph unicode="&#xe8;" horiz-adv-x="467" d="M414 375q-1 -79 -69 -134.5t-209 -67.5l-2 -14q-3 -17 -3 -29q0 -36 19.5 -51.5t60.5 -15.5q64 0 138 38l-15 -78q-75 -35 -141 -35q-70 0 -106.5 38.5t-36.5 108.5q0 20 3 44l13 89q17 113 72 172.5t134 59.5q68 0 105.5 -33.5t36.5 -91.5zM152 272l-7 -45q66 11 108 27 q77 53 77 113q0 29 -16.5 45.5t-44.5 16.5q-40 0 -73 -40.5t-44 -116.5zM280 546l-109 139h90l90 -139h-71z" />
<glyph unicode="&#xe9;" horiz-adv-x="467" d="M414 375q-1 -79 -69 -134.5t-209 -67.5l-2 -14q-3 -17 -3 -29q0 -36 19.5 -51.5t60.5 -15.5q64 0 138 38l-15 -78q-75 -35 -141 -35q-70 0 -106.5 38.5t-36.5 108.5q0 20 3 44l13 89q17 113 72 172.5t134 59.5q68 0 105.5 -33.5t36.5 -91.5zM152 272l-7 -45q66 11 108 27 q77 53 77 113q0 29 -16.5 45.5t-44.5 16.5q-40 0 -73 -40.5t-44 -116.5zM380 685l-109 -139h-71l90 139h90z" />
<glyph unicode="&#xea;" horiz-adv-x="467" d="M414 375q-1 -79 -69 -134.5t-209 -67.5l-2 -14q-3 -17 -3 -29q0 -36 19.5 -51.5t60.5 -15.5q64 0 138 38l-15 -78q-75 -35 -141 -35q-70 0 -106.5 38.5t-36.5 108.5q0 20 3 44l13 89q17 113 72 172.5t134 59.5q68 0 105.5 -33.5t36.5 -91.5zM152 272l-7 -45q66 11 108 27 q77 53 77 113q0 29 -16.5 45.5t-44.5 16.5q-40 0 -73 -40.5t-44 -116.5zM286 611l-139 -65l10 72l140 72l120 -76l-10 -68z" />
<glyph unicode="&#xeb;" horiz-adv-x="467" d="M414 375q-1 -79 -69 -134.5t-209 -67.5l-2 -14q-3 -17 -3 -29q0 -36 19.5 -51.5t60.5 -15.5q64 0 138 38l-15 -78q-75 -35 -141 -35q-70 0 -106.5 38.5t-36.5 108.5q0 20 3 44l13 89q17 113 72 172.5t134 59.5q68 0 105.5 -33.5t36.5 -91.5zM152 272l-7 -45q66 11 108 27 q77 53 77 113q0 29 -16.5 45.5t-44.5 16.5q-40 0 -73 -40.5t-44 -116.5zM262 648l-4 -29q-6 -42 -56 -42q-26 0 -41 13t-12 34l4 28q6 43 57 43q27 0 41 -12.5t11 -34.5zM434 648l-4 -29q-6 -42 -56 -42q-26 0 -41 13t-12 34l4 28q6 43 57 43q27 0 41 -12.5t11 -34.5z" />
<glyph unicode="&#xec;" horiz-adv-x="245" d="M125 0h-85l69 488h85zM166 546l-109 139h90l90 -139h-71z" />
<glyph unicode="&#xed;" horiz-adv-x="245" d="M125 0h-85l69 488h85zM265 685l-109 -139h-71l90 139h90z" />
<glyph unicode="&#xee;" horiz-adv-x="245" d="M125 0h-85l69 488h85zM170 611l-139 -65l10 72l140 72l120 -76l-10 -68z" />
<glyph unicode="&#xef;" horiz-adv-x="245" d="M125 0h-85l69 488h85zM141 648l-4 -29q-6 -42 -56 -42q-26 0 -41 13t-12 34l4 28q6 43 57 43q27 0 41 -12.5t11 -34.5zM313 648l-4 -29q-6 -42 -56 -42q-26 0 -41 13t-12 34l4 28q6 43 57 43q27 0 41 -12.5t11 -34.5z" />
<glyph unicode="&#xf0;" horiz-adv-x="497" d="M163 631l9 64q139 0 205 -80l105 30l-9 -66l-63 -18q25 -59 25 -137q0 -33 -7 -89l-24 -170q-12 -89 -57 -133t-129 -44q-162 0 -162 140q0 18 3 39l16 115q21 157 147 157q36 0 69.5 -19.5t54.5 -58.5l4 25q4 24 4 51q0 58 -22 102l-125 -34l10 66l73 20q-49 40 -127 40 zM233 363q-63 0 -77 -99l-16 -112q-6 -45 15.5 -69t65.5 -24q83 0 95 89l19 133q-18 40 -46 61t-56 21z" />
<glyph unicode="&#xf1;" horiz-adv-x="495" d="M120 0h-85l68 488h80l-11 -79l-45 -169l3 -2l3 2q35 127 87 193.5t112 66.5q102 0 102 -121q0 -33 -5 -63l-48 -316h-85l50 318q4 24 4 46q0 57 -41 57q-55 0 -108.5 -108.5t-76.5 -282.5zM424 613q-38 -28 -84 -28q-20 0 -50.5 12.5t-48.5 12.5q-15 0 -35 -6t-33 -12 l-13 -7l10 68q38 32 84 32q27 0 55 -12.5t43 -12.5t35.5 6t33.5 12l13 7z" />
<glyph unicode="&#xf2;" horiz-adv-x="492" d="M319 161l23 161q7 50 -15 78.5t-65 28.5q-88 0 -102 -102l-23 -162q-7 -49 15.5 -77.5t65.5 -28.5q86 0 101 102zM426 315l-19 -139q-12 -89 -61.5 -138.5t-130.5 -49.5q-82 0 -123.5 38t-41.5 108q0 18 3 38l20 144q12 89 62 136.5t131 47.5q80 0 121.5 -38.5 t41.5 -108.5q0 -19 -3 -38zM284 546l-109 139h90l90 -139h-71z" />
<glyph unicode="&#xf3;" horiz-adv-x="492" d="M319 161l23 161q7 50 -15 78.5t-65 28.5q-88 0 -102 -102l-23 -162q-7 -49 15.5 -77.5t65.5 -28.5q86 0 101 102zM426 315l-19 -139q-12 -89 -61.5 -138.5t-130.5 -49.5q-82 0 -123.5 38t-41.5 108q0 18 3 38l20 144q12 89 62 136.5t131 47.5q80 0 121.5 -38.5 t41.5 -108.5q0 -19 -3 -38zM383 685l-109 -139h-71l90 139h90z" />
<glyph unicode="&#xf4;" horiz-adv-x="492" d="M319 161l23 161q7 50 -15 78.5t-65 28.5q-88 0 -102 -102l-23 -162q-7 -49 15.5 -77.5t65.5 -28.5q86 0 101 102zM426 315l-19 -139q-12 -89 -61.5 -138.5t-130.5 -49.5q-82 0 -123.5 38t-41.5 108q0 18 3 38l20 144q12 89 62 136.5t131 47.5q80 0 121.5 -38.5 t41.5 -108.5q0 -19 -3 -38zM288 611l-139 -65l10 72l140 72l120 -76l-10 -68z" />
<glyph unicode="&#xf5;" horiz-adv-x="492" d="M319 161l23 161q7 50 -15 78.5t-65 28.5q-88 0 -102 -102l-23 -162q-7 -49 15.5 -77.5t65.5 -28.5q86 0 101 102zM426 315l-19 -139q-12 -89 -61.5 -138.5t-130.5 -49.5q-82 0 -123.5 38t-41.5 108q0 18 3 38l20 144q12 89 62 136.5t131 47.5q80 0 121.5 -38.5 t41.5 -108.5q0 -19 -3 -38zM419 613q-38 -28 -84 -28q-20 0 -50.5 12.5t-48.5 12.5q-15 0 -35 -6t-33 -12l-13 -7l10 68q38 32 84 32q27 0 55 -12.5t43 -12.5t35.5 6t33.5 12l13 7z" />
<glyph unicode="&#xf6;" horiz-adv-x="492" d="M319 161l23 161q7 50 -15 78.5t-65 28.5q-88 0 -102 -102l-23 -162q-7 -49 15.5 -77.5t65.5 -28.5q86 0 101 102zM426 315l-19 -139q-12 -89 -61.5 -138.5t-130.5 -49.5q-82 0 -123.5 38t-41.5 108q0 18 3 38l20 144q12 89 62 136.5t131 47.5q80 0 121.5 -38.5 t41.5 -108.5q0 -19 -3 -38zM268 648l-4 -29q-6 -42 -56 -42q-26 0 -41 13t-12 34l4 28q6 43 57 43q27 0 41 -12.5t11 -34.5zM440 648l-4 -29q-6 -42 -56 -42q-26 0 -41 13t-12 34l4 28q6 43 57 43q27 0 41 -12.5t11 -34.5z" />
<glyph unicode="&#xf7;" d="M434 265h-354l10 70h354zM332 447l-4 -26q-4 -36 -51 -36q-23 0 -35.5 11.5t-9.5 30.5l3 25q6 37 51 37q24 0 36 -11t10 -31zM293 173l-4 -26q-4 -36 -51 -36q-23 0 -35.5 11.5t-9.5 30.5l3 25q6 37 51 37q24 0 36 -11t10 -31z" />
<glyph unicode="&#xf8;" horiz-adv-x="492" d="M46 -51h-87l101 125q-10 26 -10 60q0 18 3 38l20 144q12 89 62 136.5t131 47.5q70 0 112 -31l55 69h88l-101 -127q9 -26 9 -58q0 -19 -3 -38l-19 -139q-12 -89 -61.5 -138.5t-130.5 -49.5q-70 0 -113 30zM137 165q-1 -3 -1 -8l193 240q-21 32 -67 32q-88 0 -102 -102z M319 161l23 161v5l-191 -238q21 -30 67 -30q86 0 101 102z" />
<glyph unicode="&#xf9;" horiz-adv-x="498" d="M104 488h85l-46 -313q-4 -24 -4 -47q0 -64 48 -64q56 0 97 74t59 196l22 154h86l-69 -488h-80l4 28l46 162l-2 2l-3 -1q-68 -203 -184 -203q-51 0 -80.5 34t-29.5 97q0 12 4 46zM270 546l-109 139h90l90 -139h-71z" />
<glyph unicode="&#xfa;" horiz-adv-x="498" d="M104 488h85l-46 -313q-4 -24 -4 -47q0 -64 48 -64q56 0 97 74t59 196l22 154h86l-69 -488h-80l4 28l46 162l-2 2l-3 -1q-68 -203 -184 -203q-51 0 -80.5 34t-29.5 97q0 12 4 46zM420 685l-109 -139h-71l90 139h90z" />
<glyph unicode="&#xfb;" horiz-adv-x="498" d="M104 488h85l-46 -313q-4 -24 -4 -47q0 -64 48 -64q56 0 97 74t59 196l22 154h86l-69 -488h-80l4 28l46 162l-2 2l-3 -1q-68 -203 -184 -203q-51 0 -80.5 34t-29.5 97q0 12 4 46zM294 611l-139 -65l10 72l140 72l120 -76l-10 -68z" />
<glyph unicode="&#xfc;" horiz-adv-x="498" d="M104 488h85l-46 -313q-4 -24 -4 -47q0 -64 48 -64q56 0 97 74t59 196l22 154h86l-69 -488h-80l4 28l46 162l-2 2l-3 -1q-68 -203 -184 -203q-51 0 -80.5 34t-29.5 97q0 12 4 46zM267 648l-4 -29q-6 -42 -56 -42q-26 0 -41 13t-12 34l4 28q6 43 57 43q27 0 41 -12.5 t11 -34.5zM439 648l-4 -29q-6 -42 -56 -42q-26 0 -41 13t-12 34l4 28q6 43 57 43q27 0 41 -12.5t11 -34.5z" />
<glyph unicode="&#xfd;" horiz-adv-x="502" d="M357 190l-2 2l-3 -1q-68 -203 -184 -203q-51 0 -80.5 34t-29.5 97q0 12 4 46l47 323h85l-46 -313q-4 -24 -4 -47q0 -64 48 -64q57 0 97.5 76t58.5 195l22 153h86l-74 -524q-12 -86 -55.5 -123.5t-129.5 -37.5q-69 0 -143 22l10 75q75 -24 136 -24q46 0 68 19.5t28 61.5 l11 71zM410 685l-109 -139h-71l90 139h90z" />
<glyph unicode="&#xfe;" horiz-adv-x="489" d="M93 -185h-85l122 868h85l-34 -247l-52 -182l2 -2l3 2q36 123 81.5 184.5t105.5 61.5q52 0 82.5 -35t30.5 -102q0 -24 -7 -66l-28 -149q-30 -160 -157 -160q-64 0 -118 49zM301 424q-50 0 -99 -89.5t-63 -191.5l-6 -44q43 -36 88 -36q75 0 95 97l26 132q6 33 6 57 q0 38 -13 56.5t-34 18.5z" />
<glyph unicode="&#xff;" horiz-adv-x="502" d="M357 190l-2 2l-3 -1q-68 -203 -184 -203q-51 0 -80.5 34t-29.5 97q0 12 4 46l47 323h85l-46 -313q-4 -24 -4 -47q0 -64 48 -64q57 0 97.5 76t58.5 195l22 153h86l-74 -524q-12 -86 -55.5 -123.5t-129.5 -37.5q-69 0 -143 22l10 75q75 -24 136 -24q46 0 68 19.5t28 61.5 l11 71zM262 648l-4 -29q-6 -42 -56 -42q-26 0 -41 13t-12 34l4 28q6 43 57 43q27 0 41 -12.5t11 -34.5zM434 648l-4 -29q-6 -42 -56 -42q-26 0 -41 13t-12 34l4 28q6 43 57 43q27 0 41 -12.5t11 -34.5z" />
<glyph unicode="&#x127;" horiz-adv-x="495" d="M35 0l64 458q4 30 11 95h-68l10 70h64q1 9 1.5 19t1 22t0.5 19h85l-2 -60h125l-10 -70h-121l-8 -68l-61 -245l3 -2l3 2q35 127 87 193.5t112 66.5q102 0 102 -121q0 -33 -5 -63l-48 -316h-85l50 318q4 24 4 46q0 57 -41 57q-55 0 -108.5 -108.5t-76.5 -282.5l-4 -30h-85z " />
<glyph unicode="&#x128;" horiz-adv-x="235" d="M310 740q-38 -30 -84 -30q-22 0 -60.5 12.5t-58.5 12.5q-15 0 -35 -6.5t-33 -12.5l-13 -6l8 70q38 30 84 30q29 0 65.5 -12.5t53.5 -12.5q15 0 35 6.5t33 12.5l13 6zM124 0h-85l80 655h85z" />
<glyph unicode="&#x129;" horiz-adv-x="245" d="M125 0h-85l69 488h85zM301 613q-38 -28 -84 -28q-20 0 -50.5 12.5t-48.5 12.5q-15 0 -35 -6t-33 -12l-13 -7l10 68q38 32 84 32q27 0 55 -12.5t43 -12.5t35.5 6t33.5 12l13 7z" />
<glyph unicode="&#x131;" horiz-adv-x="245" d="M125 0h-85l69 488h85z" />
<glyph unicode="&#x132;" horiz-adv-x="547" d="M124 0h-85l80 655h85zM431 655h85l-64 -518q-10 -81 -43 -115t-99 -34q-45 0 -92 14l9 73q40 -14 76 -14q30 0 44.5 16t19.5 57z" />
<glyph unicode="&#x133;" horiz-adv-x="480" d="M125 0h-85l68 488h85zM229 646l-4 -29q-6 -42 -58 -42q-26 0 -41 13t-12 35l4 29q6 43 58 43q27 0 41.5 -13.5t11.5 -35.5zM357 -51q-11 -77 -46 -111.5t-104 -34.5q-43 0 -81 12l10 73q32 -12 72 -12q30 0 44 14t19 51l77 547h85zM469 646l-4 -29q-6 -42 -58 -42 q-26 0 -41 13t-12 35l4 29q6 43 58 43q27 0 41.5 -13.5t11.5 -35.5z" />
<glyph unicode="&#x134;" horiz-adv-x="323" d="M207 655h85l-64 -518q-10 -81 -43 -115t-99 -34q-45 0 -92 14l9 73q40 -14 76 -14q30 0 44.5 16t19.5 57zM254 760l-146 -49l8 68l148 61l132 -61l-8 -68z" />
<glyph unicode="&#x135;" horiz-adv-x="235" d="M112 -51q-11 -77 -46 -111.5t-104 -34.5q-43 0 -81 12l10 73q32 -12 72 -12q29 0 43.5 13.5t19.5 51.5l77 547h85zM156 611l-139 -65l10 72l140 72l120 -76l-10 -68z" />
<glyph unicode="&#x137;" horiz-adv-x="439" d="M227 -102l-3 -20q-4 -21 -15 -45l-28 -59h-52l26 71q-29 10 -24 42l3 20q6 37 46 37q26 0 38.5 -12t8.5 -34zM188 485l-61 -245l3 -2l2 1q71 261 192 261q43 0 71.5 -30t27.5 -78q-1 -60 -38.5 -108t-111.5 -75l110 -209h-94q-57 126 -110 229q81 13 120.5 56.5 t39.5 95.5q0 22 -11 35t-29 13q-34 0 -70 -54t-61 -130.5t-35 -150.5l-13 -94h-85l64 458q17 122 20 225h85q-2 -97 -12 -169z" />
<glyph unicode="&#x138;" horiz-adv-x="452" d="M121 0h-85l69 488h85l-33 -231q93 104 192 231h96l-199 -233l142 -255h-102q-4 8 -11 23q-58 123 -120 221z" />
<glyph unicode="&#x13f;" horiz-adv-x="445" d="M341 474l-4 -29q-4 -42 -57 -42q-26 0 -41 13t-13 35l4 29q4 43 57 43q27 0 42 -13.5t12 -35.5zM384 0h-345l80 655h85l-72 -580h260z" />
<glyph unicode="&#x140;" horiz-adv-x="456" d="M35 0l64 458q17 122 20 225h85q-2 -97 -19 -219l-65 -464h-85zM346 474l-4 -29q-6 -42 -59 -42q-27 0 -41 13.5t-11 34.5l3 23q3 26 16.5 37.5t42.5 11.5q27 0 41.5 -13.5t11.5 -35.5z" />
<glyph unicode="&#x141;" horiz-adv-x="445" d="M2 268l11 76l70 19l36 292h85l-33 -269l138 38l-11 -76l-137 -37l-29 -236h260l-8 -75h-345l35 287z" />
<glyph unicode="&#x142;" horiz-adv-x="235" d="M35 0l49 355l-93 -27l9 70l94 27l5 33q17 122 20 225h85q-2 -97 -19 -219l-2 -13l94 27l-10 -70l-94 -27l-53 -381h-85z" />
<glyph unicode="&#x143;" horiz-adv-x="580" d="M470 0h-125l-156 556l-67 -556h-84l80 655h125q88 -284 155 -555l68 555h84zM459 829l-99 -119h-70l80 119h89z" />
<glyph unicode="&#x144;" horiz-adv-x="495" d="M120 0h-85l68 488h80l-11 -79l-45 -169l3 -2l3 2q35 127 87 193.5t112 66.5q102 0 102 -121q0 -33 -5 -63l-48 -316h-85l50 318q4 24 4 46q0 57 -41 57q-55 0 -108.5 -108.5t-76.5 -282.5zM388 685l-109 -139h-71l90 139h90z" />
<glyph unicode="&#x152;" horiz-adv-x="771" d="M670 0h-345q-37 -12 -82 -12q-94 0 -141.5 47t-47.5 129q0 15 4 47l35 249q30 207 226 207q44 0 92 -12h339l-10 -77h-260l-25 -207h240l-10 -76h-240l-27 -218h260zM255 64q46 0 79 15l61 500q-39 14 -76 14q-122 0 -140 -123l-37 -268q-9 -64 21 -101t92 -37z" />
<glyph unicode="&#x153;" horiz-adv-x="743" d="M263 500q93 0 138 -78q64 78 150 78q63 0 99 -33t35 -87q-2 -173 -279 -205l-3 -20q-7 -48 14 -70t73 -22q30 0 73.5 12t73.5 26l-15 -77q-77 -36 -144 -36q-83 0 -127 65q-54 -65 -137 -65q-80 0 -121.5 39.5t-41.5 109.5q0 24 2 36l21 149q25 178 189 178zM421 276 l-6 -41q84 14 134.5 51.5t50.5 83.5q0 27 -17 43t-47 16q-42 0 -73 -40t-42 -113zM319 161l23 161q7 50 -15 78.5t-65 28.5q-88 0 -102 -102l-23 -162q-7 -49 15.5 -77.5t65.5 -28.5q86 0 101 102z" />
<glyph unicode="&#x154;" horiz-adv-x="546" d="M289 667q110 0 166 -53.5t44 -136.5l-3 -20q-8 -56 -46.5 -99t-97.5 -62l137 -296h-97q-80 199 -127 285h-14q-37 0 -92 8l-35 -293h-85l81 662q93 5 169 5zM282 596q-32 0 -86 -2l-29 -236q53 -6 88 -6q138 0 157 113l1 6q10 60 -23.5 92.5t-107.5 32.5zM417 829 l-99 -119h-70l80 119h89z" />
<glyph unicode="&#x156;" horiz-adv-x="546" d="M265 -102l-3 -20q-4 -21 -15 -45l-28 -59h-52l26 71q-29 10 -24 42l3 20q6 37 46 37q26 0 38.5 -12t8.5 -34zM289 667q110 0 166 -53.5t44 -136.5l-3 -20q-8 -56 -46.5 -99t-97.5 -62l137 -296h-97q-80 199 -127 285h-14q-37 0 -92 8l-35 -293h-85l81 662q93 5 169 5z M282 596q-32 0 -86 -2l-29 -236q53 -6 88 -6q138 0 157 113l1 6q10 60 -23.5 92.5t-107.5 32.5z" />
<glyph unicode="&#x157;" horiz-adv-x="345" d="M112 -102l-3 -20q-4 -21 -15 -45l-28 -59h-52l26 71q-29 10 -24 42l3 20q6 37 46 37q26 0 38.5 -12t8.5 -34zM120 0h-85l68 488h80l-11 -79l-45 -169l3 -2l3 2q35 127 84.5 193.5t105.5 66.5q8 0 16 -2l-16 -107q-12 3 -26 3q-60 0 -105.5 -98t-67.5 -266z" />
<glyph unicode="&#x158;" horiz-adv-x="546" d="M289 667q110 0 166 -53.5t44 -136.5l-3 -20q-8 -56 -46.5 -99t-97.5 -62l137 -296h-97q-80 199 -127 285h-14q-37 0 -92 8l-35 -293h-85l81 662q93 5 169 5zM282 596q-32 0 -86 -2l-29 -236q53 -6 88 -6q138 0 157 113l1 6q10 60 -23.5 92.5t-107.5 32.5zM181 841 l134 -49l146 49l-9 -68l-147 -61l-133 61z" />
<glyph unicode="&#x159;" horiz-adv-x="345" d="M120 0h-85l68 488h80l-11 -79l-45 -169l3 -2l3 2q35 127 84.5 193.5t105.5 66.5q8 0 16 -2l-16 -107q-12 3 -26 3q-60 0 -105.5 -98t-67.5 -266zM99 690l121 -65l139 65l-9 -72l-141 -72l-119 76z" />
<glyph unicode="&#x237;" horiz-adv-x="235" d="M112 -51q-11 -77 -46 -111.5t-104 -34.5q-43 0 -81 12l10 73q32 -12 72 -12q27 0 41 11t20 40l2 14l77 547h85z" />
<glyph unicode="&#x2c6;" horiz-adv-x="460" d="M275 611l-139 -65l10 72l140 72l120 -76l-10 -68z" />
<glyph unicode="&#x2c7;" horiz-adv-x="460" d="M156 690l121 -65l139 65l-9 -72l-141 -72l-119 76z" />
<glyph unicode="&#x2da;" horiz-adv-x="380" d="M243 723q47 0 77 -24.5t30 -64.5q0 -47 -31 -76t-88 -29q-46 0 -76.5 24.5t-30.5 65.5q0 48 31.5 76t87.5 28zM241 672q-30 0 -42.5 -11.5t-12.5 -37.5q0 -19 13 -31t36 -12q29 0 41.5 12t12.5 40q0 40 -48 40z" />
<glyph unicode="&#x2dc;" horiz-adv-x="460" d="M406 613q-38 -28 -84 -28q-20 0 -50.5 12.5t-48.5 12.5q-15 0 -35 -6t-33 -12l-13 -7l10 68q38 32 84 32q27 0 55 -12.5t43 -12.5t35.5 6t33.5 12l13 7z" />
<glyph unicode="&#x307;" horiz-adv-x="251" d="M240 780l-4 -29q-4 -42 -57 -42q-26 0 -41 13t-13 35l4 29q4 43 57 43q27 0 41.5 -13.5t12.5 -35.5z" />
<glyph unicode="&#x2013;" horiz-adv-x="610" d="M541 263h-480l10 65h480z" />
<glyph unicode="&#x2014;" horiz-adv-x="710" d="M641 263h-580l10 65h580z" />
<glyph unicode="&#x2018;" horiz-adv-x="217" d="M91 531l4 30q4 27 14 47l43 88h59l-37 -99q33 -8 28 -46l-4 -27q-6 -41 -57 -41q-26 0 -39.5 13t-10.5 35z" />
<glyph unicode="&#x2019;" horiz-adv-x="217" d="M170 647l-4 -30q-4 -27 -14 -47l-43 -88h-59l37 99q-33 8 -28 46l4 27q6 41 57 41q26 0 39.5 -13t10.5 -35z" />
<glyph unicode="&#x201a;" horiz-adv-x="217" d="M130 57l-4 -30q-4 -27 -14 -47l-43 -88h-59l37 99q-33 8 -28 46l4 27q6 41 57 41q26 0 39.5 -13t10.5 -35z" />
<glyph unicode="&#x201c;" horiz-adv-x="357" d="M51 530l4 30q4 27 14 47l43 88h59l-37 -99q33 -8 28 -46l-4 -27q-6 -41 -57 -41q-26 0 -39.5 13t-10.5 35zM191 530l4 30q4 27 14 47l43 88h59l-37 -99q33 -8 28 -46l-4 -27q-6 -41 -57 -41q-26 0 -39.5 13t-10.5 35z" />
<glyph unicode="&#x201d;" horiz-adv-x="357" d="M170 647l-4 -30q-4 -27 -14 -47l-43 -88h-59l37 99q-33 8 -28 46l4 27q6 41 57 41q26 0 39.5 -13t10.5 -35zM310 647l-4 -30q-4 -27 -14 -47l-43 -88h-59l37 99q-33 8 -28 46l4 27q6 41 57 41q26 0 39.5 -13t10.5 -35z" />
<glyph unicode="&#x201e;" horiz-adv-x="357" d="M170 57l-4 -30q-4 -27 -14 -47l-43 -88h-59l37 99q-33 8 -28 46l4 27q6 41 57 41q26 0 39.5 -13t10.5 -35zM310 57l-4 -30q-4 -27 -14 -47l-43 -88h-59l37 99q-33 8 -28 46l4 27q6 41 57 41q26 0 39.5 -13t10.5 -35z" />
<glyph unicode="&#x2022;" horiz-adv-x="235" d="M179 279l-5 -30q-5 -27 -19.5 -38t-45.5 -11q-30 0 -47 15t-13 41l5 29q7 50 64 50q31 0 48 -15.5t13 -40.5z" />
<glyph unicode="&#x2039;" horiz-adv-x="318" d="M191 488h90l-117 -170l69 -170h-86l-78 170z" />
<glyph unicode="&#x203a;" horiz-adv-x="318" d="M137 148h-91l117 170l-69 170h82l82 -170z" />
<glyph unicode="&#x20ac;" d="M387 326h-168l-9 -62h189l-30 -70h-169v-3q-3 -18 -3 -34q0 -94 100 -94q55 0 139 26l-9 -77q-82 -24 -140 -24q-174 0 -174 161q0 21 3 45h-76l30 70h55l9 62h-76l30 70h56l4 28q14 100 63 144.5t146 44.5q68 0 141 -20l-12 -74q-68 21 -133 21q-55 0 -83 -25.5 t-37 -87.5l-5 -31h189z" />
<glyph unicode="&#xe000;" horiz-adv-x="490" d="M0 490h490v-490h-490v490z" />
<glyph unicode="&#xf6c3;" horiz-adv-x="300" d="M205 41l-3 -20q-4 -21 -15 -45l-28 -59h-52l26 71q-29 10 -24 42l3 20q6 37 46 37q26 0 38.5 -12t8.5 -34z" />
<glyph horiz-adv-x="385" d="M250 710l-71 119h89l52 -119h-70z" />
<glyph horiz-adv-x="431" d="M243 781l-4 -29q-4 -42 -55 -42q-26 0 -41 13t-13 34l4 28q4 43 56 43q27 0 41 -12.5t12 -34.5zM415 781l-4 -29q-5 -42 -55 -42q-26 0 -41 13t-13 34l4 28q4 43 56 43q27 0 41 -12.5t12 -34.5z" />
<glyph horiz-adv-x="385" d="M334 829l-99 -119h-70l80 119h89z" />
<glyph horiz-adv-x="460" d="M286 760l-146 -49l8 68l148 61l132 -61l-8 -68z" />
<glyph horiz-adv-x="460" d="M156 841l134 -49l146 49l-9 -68l-147 -61l-133 61z" />
<glyph horiz-adv-x="380" d="M248 800q48 0 77 -22t30 -63q1 -57 -32 -86t-92 -29q-48 0 -77.5 23t-30.5 65q-1 56 32.5 84t92.5 28zM244 745q-55 0 -55 -50q2 -40 46 -40q29 0 42.5 14t12.5 39q0 37 -46 37z" />
<glyph horiz-adv-x="460" d="M424 740q-38 -30 -84 -30q-22 0 -60.5 12.5t-58.5 12.5q-15 0 -35 -6.5t-33 -12.5l-13 -6l8 70q38 30 84 30q29 0 65.5 -12.5t53.5 -12.5q15 0 35 6.5t33 12.5l13 6z" />
<glyph horiz-adv-x="251" d="M240 780l-4 -29q-4 -42 -57 -42q-26 0 -41 13t-13 35l4 29q4 43 57 43q27 0 41.5 -13.5t12.5 -35.5z" />
<glyph horiz-adv-x="864" d="M720 0h-576v576h288v-288h288v-288zM720 432h-144v144h144v-144z" />
</font>
</defs>
</svg>
