<?xml version="1.0" standalone="no"?>
<!DOCTYPE svg PUBLIC "-//W3C//DTD SVG 1.1//EN" "http://www.w3.org/Graphics/SVG/1.1/DTD/svg11.dtd" >
<svg xmlns="http://www.w3.org/2000/svg">
<metadata></metadata>
<defs>
<font id="ropa_sansregular" horiz-adv-x="520" >
<font-face units-per-em="1000" ascent="800" descent="-200" />
<missing-glyph horiz-adv-x="300" />
<glyph horiz-adv-x="0" />
<glyph horiz-adv-x="0" />
<glyph horiz-adv-x="0" />
<glyph horiz-adv-x="0" />
<glyph horiz-adv-x="0" />
<glyph horiz-adv-x="0" />
<glyph horiz-adv-x="0" />
<glyph horiz-adv-x="0" />
<glyph unicode="&#x9;" horiz-adv-x="0" />
<glyph unicode="&#xd;" horiz-adv-x="300" />
<glyph horiz-adv-x="0" />
<glyph horiz-adv-x="0" />
<glyph horiz-adv-x="0" />
<glyph horiz-adv-x="0" />
<glyph horiz-adv-x="0" />
<glyph horiz-adv-x="0" />
<glyph horiz-adv-x="0" />
<glyph horiz-adv-x="0" />
<glyph horiz-adv-x="0" />
<glyph horiz-adv-x="0" />
<glyph unicode=" "  horiz-adv-x="300" />
<glyph unicode="&#x09;" horiz-adv-x="300" />
<glyph unicode="&#xa0;" horiz-adv-x="300" />
<glyph unicode="!" horiz-adv-x="211" d="M146 200h-81l-7 495h95zM161 62v-29q0 -45 -56 -45q-55 0 -55 45v29q0 46 55 46q56 0 56 -46z" />
<glyph unicode="&#x22;" horiz-adv-x="375" d="M75 429v254h85v-254h-85zM215 429v254h85v-254h-85z" />
<glyph unicode="#" d="M503 125h-80v-125h-85v125h-156v-125h-85v125h-80v70h80v223h-80v70h80v125h85v-125h156v125h85v-125h80v-70h-80v-223h80v-70zM338 195v223h-156v-223h156z" />
<glyph unicode="$" d="M301 -94h-75v82q-43 1 -127 17l2 73q76 -17 131 -17q70 0 99 21t29 65v20q0 33 -16.5 49.5t-70.5 32.5l-62 19q-80 24 -108.5 59t-28.5 114v5q0 74 36 114.5t116 49.5v85h75v-83q26 -1 109 -13l-2 -73q-74 14 -131 14q-64 0 -91 -21t-27 -65v-20q0 -38 13.5 -54.5 t62.5 -30.5l63 -19q86 -26 116.5 -61.5t30.5 -108.5v-5q0 -70 -33.5 -110.5t-110.5 -51.5v-87z" />
<glyph unicode="%" horiz-adv-x="922" d="M676 613l-335 -613h-87l335 613h87zM380 423q0 -77 -39.5 -118.5t-117.5 -41.5t-118 41.5t-40 118.5v30q0 77 40 118.5t118 41.5t117.5 -41.5t39.5 -118.5v-30zM295 423v30q0 45 -17.5 65t-54.5 20q-73 0 -73 -85v-30q0 -85 73 -85q72 0 72 85zM857 148 q0 -77 -39.5 -118.5t-117.5 -41.5t-118 41.5t-40 118.5v30q0 77 40 118.5t118 41.5t117.5 -41.5t39.5 -118.5v-30zM772 148v30q0 45 -17.5 65t-54.5 20q-73 0 -73 -85v-30q0 -85 73 -85q72 0 72 85z" />
<glyph unicode="&#x26;" horiz-adv-x="530" d="M245 596q-102 0 -102 -96v-22q0 -52 32 -81.5t93 -29.5h101v73h82v-73h74v-69h-74v-285q-119 -25 -183 -25q-125 0 -179 45t-54 129v22q0 56 30.5 97.5t86.5 58.5q-92 40 -92 145v22q0 70 48.5 115t136.5 45q47 0 118 -11l-2 -71q-62 11 -116 11zM369 73v225h-107 q-71 0 -106.5 -29t-35.5 -81v-27q0 -101 148 -101q43 0 101 13z" />
<glyph unicode="'" horiz-adv-x="235" d="M75 429v254h85v-254h-85z" />
<glyph unicode="(" d="M163 65v538q0 111 33 147.5t138 36.5v-72q-54 -4 -70 -18t-16 -57v-597q0 -55 14.5 -71t71.5 -19v-72q-105 0 -138 36.5t-33 147.5z" />
<glyph unicode=")" d="M356 603v-538q0 -111 -33 -147.5t-138 -36.5v72q57 3 71.5 19t14.5 71v597q0 43 -16 57t-70 18v72q105 0 138 -36.5t33 -147.5z" />
<glyph unicode="*" horiz-adv-x="410" d="M239 695l-10 -112l103 44l23 -66l-111 -25l74 -84l-57 -41l-57 96l-57 -97l-56 42l74 85l-110 24l23 66l102 -43l-10 111h69z" />
<glyph unicode="+" d="M438 265h-140v-152h-76v152h-140v71h140v152h76v-152h140v-71z" />
<glyph unicode="," horiz-adv-x="220" d="M165 63v-31q0 -29 -7 -51l-43 -142h-60l36 152q-35 8 -35 43v29q0 45 54 45q55 0 55 -45z" />
<glyph unicode="-" horiz-adv-x="350" d="M285 263h-220v65h220v-65z" />
<glyph unicode="." horiz-adv-x="221" d="M166 62v-29q0 -45 -56 -45q-55 0 -55 45v29q0 46 55 46q56 0 56 -46z" />
<glyph unicode="/" d="M200 0h-85l205 683h85z" />
<glyph unicode="0" d="M445 193q0 -102 -47.5 -153.5t-137.5 -51.5t-137.5 51.5t-47.5 153.5v215q0 102 47.5 153.5t137.5 51.5t137.5 -51.5t47.5 -153.5v-215zM360 185v231q0 125 -100 125t-100 -125v-231q0 -125 100 -125t100 125z" />
<glyph unicode="1" d="M434 0h-325v73h128v446h-2l-133 -57l-17 73l162 66h75v-528h112v-73z" />
<glyph unicode="2" d="M236 541q-59 0 -126 -21v73q73 20 126 20q189 0 189 -156v-22q0 -47 -16 -87t-67 -100l-145 -175h225v-73h-327v65l200 253q28 35 36.5 57.5t8.5 58.5v18q0 48 -24.5 68.5t-79.5 20.5z" />
<glyph unicode="3" d="M229 543q-44 0 -126 -14v71q82 13 126 13q85 0 130 -41t45 -115v-10q0 -96 -77 -133q41 -17 65.5 -55t24.5 -86v-10q0 -79 -47.5 -127t-137.5 -48q-47 0 -129 13v71q76 -13 129 -13q48 0 74 26.5t26 72.5v16q0 102 -105 102h-89v68h89q47 0 69.5 23.5t22.5 75.5v19 q0 81 -90 81z" />
<glyph unicode="4" d="M188 601h77l-126 -402h174v202h82v-202h74v-70h-74v-129h-83v129h-239l-22 45z" />
<glyph unicode="5" d="M438 176q0 -188 -195 -188q-73 0 -151 22v69q86 -19 149 -19q112 0 112 116v39q0 96 -74 96t-132 -65h-65v358h308v-73h-223v-193q56 44 133 44q69 0 103.5 -40.5t34.5 -129.5v-36z" />
<glyph unicode="6" d="M75 178v184q0 239 317 244v-73q-123 -2 -177.5 -40.5t-54.5 -114.5v-56q71 67 134 67q72 0 111.5 -44.5t39.5 -132.5v-39q0 -91 -47.5 -138t-138.5 -47q-89 0 -136.5 49.5t-47.5 140.5zM160 250v-77q0 -113 99 -113q101 0 101 108v47q0 49 -21.5 74.5t-59.5 25.5 q-48 0 -119 -65z" />
<glyph unicode="7" d="M79 600h361v-58l-224 -542h-91l224 525v2h-270v73z" />
<glyph unicode="8" d="M455 163q0 -83 -50.5 -129t-144.5 -46t-144.5 46t-50.5 129v15q0 104 89 143q-63 37 -63 129v5q0 75 45.5 116.5t123.5 41.5t123.5 -41.5t45.5 -116.5v-5q0 -92 -63 -129q89 -41 89 -143v-15zM346 441v19q0 87 -86 87t-86 -87v-19q0 -47 20 -67.5t66 -20.5 q47 0 66.5 20.5t19.5 67.5zM370 155v25q0 51 -29 79t-81 28t-81 -28t-29 -79v-25q0 -44 28.5 -70t81.5 -26t81.5 26t28.5 70z" />
<glyph unicode="9" d="M445 208q0 -114 -50.5 -167t-153.5 -53q-59 0 -129 16v71q85 -16 129 -16q61 0 90 33.5t29 109.5v76q-70 -67 -136 -67q-71 0 -110 45t-39 132v39q0 90 47 137.5t139 47.5q90 0 137 -48.5t47 -141.5v-214zM360 350v77q0 113 -99 113q-101 0 -101 -108v-47q0 -49 21 -74.5 t60 -25.5q48 0 119 65z" />
<glyph unicode=":" horiz-adv-x="221" d="M166 62v-29q0 -45 -56 -45q-55 0 -55 45v29q0 46 55 46q56 0 56 -46zM166 454v-29q0 -45 -56 -45q-55 0 -55 45v29q0 46 55 46q56 0 56 -46z" />
<glyph unicode=";" horiz-adv-x="221" d="M166 454v-29q0 -45 -56 -45q-55 0 -55 45v29q0 46 55 46q56 0 56 -46zM165 63v-31q0 -29 -7 -51l-43 -142h-60l36 152q-35 8 -35 43v29q0 45 54 45q55 0 55 -45z" />
<glyph unicode="&#x3c;" d="M440 99l-360 160v75l360 160v-83l-276 -114l276 -115v-83z" />
<glyph unicode="=" d="M437 180h-354v70h354v-70zM437 351h-354v70h354v-70z" />
<glyph unicode="&#x3e;" d="M440 259l-360 -160v83l276 115l-276 114v83l360 -160v-75z" />
<glyph unicode="?" horiz-adv-x="395" d="M151 627q-47 0 -126 -18v70q78 16 131 16q97 0 140.5 -35t43.5 -103v-25q0 -45 -20 -85.5t-67 -89.5l-33 -36q-16 -17 -21.5 -31.5t-5.5 -44.5v-45h-81v32q0 49 7 70t33 52l58 68q27 33 36 55t9 57v22q0 37 -22.5 54t-81.5 17zM210 62v-29q0 -45 -56 -45q-55 0 -55 45v29 q0 46 55 46q56 0 56 -46z" />
<glyph unicode="@" horiz-adv-x="960" d="M281 182l18 138q10 81 53 124.5t110 43.5q54 0 117 -54l5 41h80l-40 -317q-2 -12 -2 -20q0 -48 51 -48q53 0 90 50.5t37 127.5v50q0 148 -83 224.5t-247 76.5q-147 0 -228.5 -86t-81.5 -245v-100q0 -146 78 -221.5t232 -75.5h135v-76h-135q-395 0 -395 373v100 q0 187 99 297t296 110q415 0 415 -377v-50q0 -112 -57.5 -182.5t-155.5 -70.5q-113 0 -126 94q-78 -94 -154 -94q-55 0 -84.5 33t-29.5 95q0 15 3 39zM418 91q64 0 124 91l22 181q-18 22 -44.5 35.5t-49.5 13.5q-75 0 -88 -104l-15 -115q-3 -18 -3 -32q0 -70 54 -70z" />
<glyph unicode="A" horiz-adv-x="536" d="M429 0l-43 152h-241l-43 -152h-87l200 655h105l201 -655h-92zM266 577l-100 -349h198z" />
<glyph unicode="B" horiz-adv-x="528" d="M75 -6v669q92 4 176 4q105 0 160 -43t55 -117v-22q0 -105 -92 -145q56 -12 87.5 -51.5t31.5 -97.5v-22q0 -83 -58.5 -132t-176.5 -49q-67 0 -183 6zM160 298v-230q65 -6 98 -6q150 0 150 112v21q0 103 -144 103h-104zM160 591v-224h98q60 0 91.5 29t31.5 81v17 q0 100 -143 100q-36 0 -78 -3z" />
<glyph unicode="C" horiz-adv-x="476" d="M283 667q37 0 138 -16l-2 -75q-88 16 -136 16q-68 0 -98 -28t-30 -93v-286q0 -65 29.5 -92.5t98.5 -27.5q48 0 136 16l2 -77q-101 -16 -138 -16q-115 0 -164 49t-49 153v275q0 104 49 153t164 49z" />
<glyph unicode="D" horiz-adv-x="571" d="M160 593v-526q58 -6 93 -6q77 0 122.5 44.5t45.5 128.5v177q0 91 -44 137.5t-124 46.5q-31 0 -93 -2zM75 -6v669q90 4 183 4q119 0 183.5 -67.5t64.5 -194.5v-164q0 -122 -64.5 -187.5t-188.5 -65.5q-85 0 -178 6z" />
<glyph unicode="E" horiz-adv-x="485" d="M420 0h-345v655h345v-77h-260v-207h240v-76h-240v-218h260v-77z" />
<glyph unicode="F" horiz-adv-x="485" d="M420 578h-260v-207h196v-76h-196v-295h-85v655h345v-77z" />
<glyph unicode="G" horiz-adv-x="560" d="M283 -12q-115 0 -164 49t-49 153v275q0 106 50 154t163 48q65 0 173 -22l-2 -73q-113 22 -171 22q-69 0 -98.5 -28t-29.5 -92v-290q0 -64 29.5 -92.5t98.5 -28.5q45 0 117 14v221h-125v80h210v-353q-120 -37 -202 -37z" />
<glyph unicode="H" horiz-adv-x="580" d="M505 0h-85v300h-260v-300h-85v655h85v-279h260v279h85v-655z" />
<glyph unicode="I" horiz-adv-x="235" d="M160 0h-85v655h85v-655z" />
<glyph unicode="J" horiz-adv-x="312" d="M237 655v-516q0 -77 -36.5 -114t-116.5 -37q-43 0 -64 7v71q28 -5 68 -5q64 0 64 63v531h85z" />
<glyph unicode="K" horiz-adv-x="550" d="M160 0h-85v655h85v-316l244 316h95l-251 -317l277 -338h-109l-256 324v-324z" />
<glyph unicode="L" horiz-adv-x="445" d="M420 0h-345v655h85v-580h260v-75z" />
<glyph unicode="M" horiz-adv-x="699" d="M629 0h-83l-5 538l-139 -470h-105l-139 470l-5 -538h-83l6 655h126l148 -511l147 511h126z" />
<glyph unicode="N" horiz-adv-x="582" d="M507 0h-132l-216 553v-553h-84v655h136l212 -553v553h84v-655z" />
<glyph unicode="O" horiz-adv-x="576" d="M155 462v-268q0 -131 133 -131t133 131v267q0 131 -133 131t-133 -130zM70 203v249q0 215 218 215t218 -215v-249q0 -215 -218 -215t-218 215z" />
<glyph unicode="P" horiz-adv-x="504" d="M160 0h-85v662q85 5 173 5q231 0 231 -182v-24q0 -93 -55.5 -144t-167.5 -51q-45 0 -96 8v-274zM160 594v-247q60 -8 92 -8q142 0 142 126v17q0 114 -148 114q-44 0 -86 -2z" />
<glyph unicode="Q" horiz-adv-x="576" d="M70 203v249q0 215 218 215t218 -215v-247q0 -133 -87 -182l107 -29l2 -79h-19l-196 74q-8 -1 -24 -1q-219 0 -219 215zM155 462v-268q0 -131 133 -131t133 136v262q0 131 -133 131t-133 -130z" />
<glyph unicode="R" horiz-adv-x="548" d="M248 667q229 0 229 -174v-26q0 -55 -33 -102.5t-88 -68.5l167 -296h-95l-158 280h-19q-55 0 -91 2v-282h-85v663q112 4 173 4zM246 596q-32 0 -86 -2v-236q60 -4 89 -4q143 0 143 115v19q0 55 -34.5 81.5t-111.5 26.5z" />
<glyph unicode="S" horiz-adv-x="456" d="M211 387l93 -31q67 -23 94.5 -61t27.5 -111v-19q0 -89 -51.5 -133t-168.5 -44q-57 0 -146 20l2 77q83 -20 142 -20q75 0 106 22.5t31 70.5v33q0 35 -15.5 53.5t-54.5 31.5l-103 34q-69 23 -96 59.5t-27 110.5v11q0 176 195 176q53 0 140 -16l-2 -75q-82 16 -138 16 q-59 0 -84.5 -23t-25.5 -70v-26q0 -36 15.5 -53t65.5 -33z" />
<glyph unicode="T" horiz-adv-x="515" d="M215 578h-190v77h465v-77h-190v-578h-85v578z" />
<glyph unicode="U" horiz-adv-x="576" d="M416 655h85v-448q0 -106 -54 -162.5t-159 -56.5q-104 0 -158.5 55t-54.5 162v450h85v-461q0 -64 33 -97.5t95 -33.5t95 33.5t33 97.5v461z" />
<glyph unicode="V" horiz-adv-x="530" d="M515 655l-194 -655h-112l-194 655h90l160 -573l160 573h90z" />
<glyph unicode="W" horiz-adv-x="848" d="M823 655l-149 -655h-114l-136 558l-135 -558h-114l-150 655h90l120 -562l131 562h116l132 -562l119 562h90z" />
<glyph unicode="X" horiz-adv-x="523" d="M259 268l-146 -268h-98l192 338l-180 317h102l137 -250l137 250h94l-178 -319l189 -336h-103z" />
<glyph unicode="Y" horiz-adv-x="495" d="M480 655l-190 -430v-225h-85v225l-190 430h97l136 -340l137 340h95z" />
<glyph unicode="Z" horiz-adv-x="495" d="M440 0h-395v67l296 511h-290v77h389v-67l-296 -511h296v-77z" />
<glyph unicode="[" d="M362 -116h-205v900h205v-70h-120v-760h120v-70z" />
<glyph unicode="\" d="M405 0h-85l-205 683h85z" />
<glyph unicode="]" d="M362 -116h-205v70h120v760h-120v70h205v-900z" />
<glyph unicode="^" horiz-adv-x="495" d="M430 403h-83l-100 201l-99 -201h-83l145 280h75z" />
<glyph unicode="_" horiz-adv-x="610" d="M545 -185h-480v65h480v-65z" />
<glyph unicode="`" horiz-adv-x="385" d="M202 546l-95 139h85l76 -139h-66z" />
<glyph unicode="a" horiz-adv-x="469" d="M394 339v-339h-81v78q-59 -90 -131 -90q-58 0 -92.5 40t-34.5 109v28q0 61 41 101t110 40q38 0 103 -13v53q0 43 -19.5 62t-60.5 19q-47 0 -135 -15v73q94 15 135 15q86 0 125.5 -38.5t39.5 -122.5zM201 64q58 0 108 90v77q-38 7 -82 7q-41 0 -63.5 -22t-22.5 -62v-11 q0 -37 17 -58t43 -21z" />
<glyph unicode="b" horiz-adv-x="491" d="M160 683v-260q55 77 131 77q62 0 96 -43.5t34 -126.5v-158q0 -184 -176 -184q-88 0 -129 45t-41 137v513h85zM271 424q-29 0 -59 -22t-52 -60v-182q0 -49 22.5 -75t62.5 -26q91 0 91 103v156q0 106 -65 106z" />
<glyph unicode="c" horiz-adv-x="404" d="M251 -12q-181 0 -181 182v148q0 182 181 182q35 0 98 -10l-2 -75q-58 10 -96 10q-47 0 -71.5 -26t-24.5 -74v-161q0 -101 96 -101q38 0 96 10l2 -75q-63 -10 -98 -10z" />
<glyph unicode="d" horiz-adv-x="491" d="M70 155v178q0 79 36.5 123t104.5 44q55 0 120 -50v233h85v-683h-81v79q-60 -91 -137 -91q-62 0 -95 42.5t-33 124.5zM218 64q63 0 113 90v220q-21 22 -49.5 36t-51.5 14q-75 0 -75 -103v-155q0 -102 63 -102z" />
<glyph unicode="e" horiz-adv-x="467" d="M70 164v157q0 179 170 179q84 0 128 -46t44 -133v-103h-257v-59q0 -51 24 -73.5t77 -22.5q51 0 141 18l-4 -75q-99 -18 -137 -18q-99 0 -142.5 43t-43.5 133zM155 334v-48h172v45q0 48 -23.5 73t-63.5 25q-39 0 -62 -24.5t-23 -70.5z" />
<glyph unicode="f" horiz-adv-x="333" d="M105 539q1 156 150 156q33 0 63 -7v-68q-30 5 -62 5q-30 0 -48 -19t-18 -54v-64h90v-70h-90v-418h-85v418h-70v70h70v51z" />
<glyph unicode="g" horiz-adv-x="486" d="M69 -179l-3 77q72 -24 149 -24q76 0 98.5 13.5t22.5 52.5v9q0 47 -48 50l-150 10q-47 3 -72.5 27.5t-25.5 64.5v20q0 46 45 80q-32 36 -32 121v22q0 71 44 113.5t128 42.5q44 0 80 -13l156 2v-75l-85 3q20 -30 20 -76v-22q0 -73 -45 -117.5t-126 -44.5q-52 0 -85 10 q-22 -19 -22 -40v-6q0 -15 10.5 -23.5t38.5 -10.5l149 -11q46 -4 74.5 -34.5t28.5 -76.5v-37q0 -65 -42.5 -95t-161.5 -30q-67 0 -146 18zM138 346v-33q0 -53 15.5 -69t65.5 -16q92 0 92 85v30q0 42 -12 73q-28 13 -74 13q-42 0 -64.5 -21.5t-22.5 -61.5z" />
<glyph unicode="h" horiz-adv-x="491" d="M160 0h-85v683h85v-260q55 77 128 77q64 0 98.5 -43.5t34.5 -123.5v-333h-85v321q0 100 -65 100q-29 0 -59 -22t-52 -60v-339z" />
<glyph unicode="i" horiz-adv-x="245" d="M165 0h-85v488h85v-488zM178 649v-29q0 -45 -56 -45q-55 0 -55 45v29q0 46 55 46q56 0 56 -46z" />
<glyph unicode="j" horiz-adv-x="235" d="M75 -53v541h85v-536q0 -75 -37 -112t-116 -37q-33 0 -60 6v71q44 -4 64 -4q64 0 64 71zM173 649v-29q0 -45 -56 -45q-55 0 -55 45v29q0 46 55 46q56 0 56 -46z" />
<glyph unicode="k" horiz-adv-x="452" d="M160 0h-85v683h85v-409l160 214h95l-166 -214l178 -274h-102l-165 262v-262z" />
<glyph unicode="l" horiz-adv-x="235" d="M160 0h-85v683h85v-683z" />
<glyph unicode="m" horiz-adv-x="742" d="M160 0h-85v488h80v-73q55 85 131 85q92 0 120 -92q56 92 136 92q62 0 96 -43.5t34 -123.5v-333h-85v321q0 100 -62 100q-28 0 -57.5 -22t-51.5 -60v-339h-85v321q0 100 -62 100q-28 0 -57.5 -22t-51.5 -60v-339z" />
<glyph unicode="n" horiz-adv-x="491" d="M160 0h-85v488h80v-73q55 85 133 85q64 0 98.5 -43.5t34.5 -123.5v-333h-85v321q0 100 -65 100q-29 0 -59 -22t-52 -60v-339z" />
<glyph unicode="o" horiz-adv-x="492" d="M337 163v163q0 50 -24 76.5t-67 26.5t-67 -27t-24 -77v-162q0 -50 24 -77t67 -27t67 27t24 77zM422 318v-148q0 -182 -176 -182t-176 182v148q0 182 176 182t176 -182z" />
<glyph unicode="p" horiz-adv-x="490" d="M160 -185h-85v673h80v-71q55 83 132 83q63 0 98 -43t35 -124v-178q0 -78 -40.5 -122.5t-109.5 -44.5q-50 0 -110 35v-208zM270 424q-29 0 -58.5 -21.5t-51.5 -58.5v-245q45 -36 93 -36q82 0 82 104v154q0 103 -65 103z" />
<glyph unicode="q" horiz-adv-x="491" d="M70 155v178q0 79 36.5 123t104.5 44q55 0 124 -53v41h81v-673h-85v258q-59 -85 -133 -85q-62 0 -95 42.5t-33 124.5zM218 64q63 0 113 90v220q-21 22 -49.5 36t-51.5 14q-75 0 -75 -103v-155q0 -102 63 -102z" />
<glyph unicode="r" horiz-adv-x="345" d="M160 0h-85v488h80v-73q55 85 133 85q14 0 22 -2v-96q-15 3 -39 3q-70 0 -111 -70v-335z" />
<glyph unicode="s" horiz-adv-x="389" d="M135 234q-90 34 -90 114v13q0 71 39.5 105t129.5 34q46 0 105 -12l-2 -72q-53 12 -99 12q-51 0 -70 -14t-19 -45v-8q0 -19 10 -30.5t36 -22.5l94 -39q43 -18 66.5 -49t23.5 -68v-24q0 -71 -41 -105.5t-133 -34.5q-57 0 -127 16l2 75q64 -16 125 -16q52 0 71 13t19 44v14 q0 45 -43 62z" />
<glyph unicode="t" horiz-adv-x="343" d="M85 139v279h-70v70h70l16 130h69v-130h130v-70h-130v-286q0 -38 15.5 -54.5t48.5 -16.5q44 0 84 8v-71q-44 -10 -80 -10q-80 0 -116.5 35.5t-36.5 115.5z" />
<glyph unicode="u" horiz-adv-x="496" d="M336 488h85v-488h-80v70q-56 -82 -133 -82q-62 0 -97.5 42.5t-35.5 124.5v333h85v-318q0 -103 65 -103q63 0 111 81v340z" />
<glyph unicode="v" horiz-adv-x="442" d="M427 488l-151 -488h-111l-150 488h90l116 -426l116 426h90z" />
<glyph unicode="w" horiz-adv-x="688" d="M663 488l-110 -488h-107l-102 414l-103 -414h-107l-109 488h90l76 -413l98 413h110l97 -413l77 413h90z" />
<glyph unicode="x" horiz-adv-x="461" d="M339 0l-109 190l-108 -190h-97l151 252l-141 236h97l98 -174l98 174h97l-141 -236l152 -252h-97z" />
<glyph unicode="y" horiz-adv-x="446" d="M431 488l-224 -673h-85l64 185h-32l-139 488h93l105 -427l130 427h88z" />
<glyph unicode="z" horiz-adv-x="426" d="M371 0h-326v65l224 348h-219v75h321v-65l-223 -348h223v-75z" />
<glyph unicode="{" d="M208 43v176q0 45 -14.5 62.5t-50.5 17.5h-25v70h25q36 0 50.5 17t14.5 63v181q0 94 34.5 125.5t136.5 31.5v-70q-52 0 -69 -14t-17 -59v-195q0 -96 -58 -115q31 -11 44.5 -37.5t13.5 -77.5v-179q0 -57 15.5 -73t70.5 -16v-70q-101 0 -136 33.5t-35 128.5z" />
<glyph unicode="|" d="M302 -112h-85v910h85v-910z" />
<glyph unicode="}" d="M311 219v-176q0 -95 -35 -128.5t-136 -33.5v70q55 0 70.5 16t15.5 73v179q0 51 13.5 77.5t44.5 37.5q-58 19 -58 115v195q0 45 -17 59t-69 14v70q102 0 136.5 -31.5t34.5 -125.5v-181q0 -46 14.5 -63t50.5 -17h25v-70h-25q-36 0 -50.5 -17.5t-14.5 -62.5z" />
<glyph unicode="~" d="M437 279q-42 -28 -100 -28q-36 0 -79 14t-77 14q-16 0 -40.5 -6.5t-40.5 -12.5l-17 -6v70q42 28 100 28q36 0 80 -14t76 -14q16 0 40.5 6t40.5 12l17 7v-70z" />
<glyph unicode="&#xa1;" horiz-adv-x="211" d="M65 310h81l7 -495h-95zM161 477v-29q0 -46 -56 -46q-55 0 -55 46v29q0 45 55 45q56 0 56 -45z" />
<glyph unicode="&#xa2;" d="M325 -88h-75v81q-130 22 -130 177v148q0 154 130 177v81h75v-77q21 -1 74 -9l-2 -75q-58 10 -96 10q-47 0 -71.5 -26t-24.5 -74v-161q0 -101 96 -101q38 0 96 10l2 -75q-53 -8 -74 -9v-77z" />
<glyph unicode="&#xa3;" d="M226 462v-87h95v-70h-95v-121q0 -78 -41 -110h263v-74h-347v60q40 49 40 106v139h-70v70h70v82q0 80 41 118t126 38q44 0 95 -15v-68q-43 13 -82 13q-52 0 -73.5 -19.5t-21.5 -61.5z" />
<glyph unicode="&#xa4;" d="M475 149l-56 -56l-62 63q-41 -24 -99 -24q-57 0 -97 22l-60 -61l-56 56l62 61q-23 41 -23 93v20q0 49 19 87l-58 57l56 56l54 -55q43 26 103 26q61 0 105 -28l56 57l56 -56l-61 -60q17 -35 17 -84v-20q0 -49 -21 -90zM349 303v20q0 98 -91 98q-47 0 -69.5 -27t-22.5 -71 v-20q0 -99 92 -99q91 0 91 99z" />
<glyph unicode="&#xa5;" d="M396 78h-94v-78h-85v78h-95v70h95v41h-95v70h66l-161 342h95l138 -321l137 321h95l-161 -342h65v-70h-94v-41h94v-70z" />
<glyph unicode="&#xa6;" d="M302 408h-85v393h85v-393zM302 -115h-85v393h85v-393z" />
<glyph unicode="&#xa7;" horiz-adv-x="403" d="M271 13v33q0 50 -41 64l-107 37q-58 20 -83 48t-25 73v24q0 52 28 88t70 41q-31 11 -49.5 39.5t-18.5 67.5v28q0 71 38.5 105t128.5 34q45 0 104 -12l-2 -71q-52 12 -98 12q-47 0 -65.5 -14t-18.5 -46v-33q0 -39 41 -55l107 -41q108 -41 108 -120v-31q0 -46 -25 -79 t-69 -42q29 -11 46.5 -39t17.5 -65v-38q0 -71 -41 -105.5t-134 -34.5q-50 0 -123 15l2 75q66 -15 121 -15q51 0 69.5 12.5t18.5 44.5zM240 367l-37 11q-48 -1 -74.5 -24.5t-26.5 -59.5v-25q0 -17 13 -29t48 -24l46 -15q45 2 68.5 24t23.5 57v23q0 44 -61 62z" />
<glyph unicode="&#xa8;" horiz-adv-x="431" d="M184 650v-29q0 -44 -55 -44q-54 0 -54 44v29q0 45 54 45q55 0 55 -45zM356 650v-29q0 -44 -55 -44q-54 0 -54 44v29q0 45 54 45q55 0 55 -45z" />
<glyph unicode="&#xa9;" horiz-adv-x="646" d="M505 186v230q0 61 -48 97.5t-134 36.5t-134 -37t-48 -98v-229q0 -61 48 -98t134 -37t134 37t48 98zM576 404v-207q0 -97 -62 -154.5t-191 -57.5t-191 57.5t-62 154.5v207q0 97 62 154.5t191 57.5t191 -57.5t62 -154.5zM337 129q-138 0 -138 148v56q0 147 138 147 q36 0 78 -7l-2 -66q-42 5 -76 5q-57 0 -57 -79v-55q0 -81 57 -81q34 0 76 5l2 -66q-48 -7 -78 -7z" />
<glyph unicode="&#xaa;" d="M429 506v-280h-81v78q-59 -90 -131 -90q-58 0 -92.5 36.5t-34.5 97.5v28q0 54 41 90.5t110 36.5q38 0 103 -13v26q0 43 -19.5 62t-60.5 19q-48 0 -135 -15v70q94 15 135 15q86 0 125.5 -38.5t39.5 -122.5zM429 0h-339v73h339v-73zM236 290q65 0 108 76v62q-38 7 -82 7 q-41 0 -63.5 -19t-22.5 -51v-11q0 -30 16.5 -47t43.5 -17z" />
<glyph unicode="&#xab;" horiz-adv-x="488" d="M165 488h88l-93 -170l93 -170h-88l-100 170zM335 488h88l-93 -170l93 -170h-88l-100 170z" />
<glyph unicode="&#xac;" d="M440 113h-76v152h-285v70h361v-222z" />
<glyph unicode="&#xad;" horiz-adv-x="350" d="M285 263h-220v65h220v-65z" />
<glyph unicode="&#xae;" horiz-adv-x="536" d="M461 513v-34q0 -182 -193 -182t-193 182v34q0 182 193 182t193 -182zM410 470v53q0 64 -33.5 94.5t-108.5 30.5t-108.5 -31.5t-33.5 -94.5v-52q0 -63 33.5 -94.5t108.5 -31.5t108.5 31.5t33.5 94.5zM238 381h-43v233q54 2 74 2q91 0 91 -70v-11q0 -43 -46 -63l54 -91h-50 l-48 84h-32v-84zM272 576q-18 0 -34 -2v-68q14 -1 36 -1q42 0 42 31v9q0 31 -44 31z" />
<glyph unicode="&#xaf;" horiz-adv-x="385" d="M300 606h-215v75h215v-75z" />
<glyph unicode="&#xb0;" horiz-adv-x="600" d="M408 500q0 -173 -165 -173q-82 0 -124 44.5t-42 128.5v22q0 84 42 128.5t124 44.5q165 0 165 -173v-22zM327 500v22q0 102 -84 102q-85 0 -85 -102v-22q0 -102 85 -102q84 0 84 102z" />
<glyph unicode="&#xb1;" d="M437 0h-356v70h356v-70zM438 265h-140v-152h-76v152h-140v71h140v152h76v-152h140v-71z" />
<glyph unicode="&#xb2;" horiz-adv-x="390" d="M174 546q-47 0 -98 -17v65q59 16 98 16q148 0 148 -108v-18q0 -35 -13.5 -64.5t-49.5 -68.5l-97 -104h161v-66h-256v60l148 170q19 22 25 36t6 36v16q0 25 -16.5 36t-55.5 11z" />
<glyph unicode="&#xb3;" horiz-adv-x="390" d="M169 549q-30 0 -95 -10v62q59 9 95 9q68 0 102.5 -28.5t34.5 -79.5v-7q0 -64 -60 -92q70 -28 70 -101v-7q0 -55 -38 -88.5t-107 -33.5q-38 0 -97 9v61q52 -8 99 -8q64 0 64 56v13q0 33 -17.5 48.5t-58.5 15.5h-58v59h58q37 0 52.5 15t15.5 47v13q0 47 -60 47z" />
<glyph unicode="&#xb4;" horiz-adv-x="311" d="M236 685l-95 -139h-66l76 139h85z" />
<glyph unicode="&#xb5;" d="M172 -185h-85v673h85v-318q0 -103 65 -103q63 0 111 81v340h85v-488h-80v70q-56 -82 -123 -82q-36 0 -58 14v-187z" />
<glyph unicode="&#xb6;" horiz-adv-x="546" d="M144 683h136v-868h-86v498h-50q-60 0 -92 30.5t-32 89.5v127q0 58 31.5 90.5t92.5 32.5zM385 683h86v-868h-86v868zM102 458q0 -39 12 -54.5t40 -15.5h40v222h-40q-28 0 -40 -15t-12 -55v-82z" />
<glyph unicode="&#xb7;" horiz-adv-x="221" d="M166 263v-29q0 -45 -56 -45q-55 0 -55 45v29q0 46 55 46q56 0 56 -46z" />
<glyph unicode="&#xb8;" horiz-adv-x="299" d="M190 -120q0 -77 -95 -77q-19 0 -49 5v53q28 -4 36 -4q41 0 41 24v13q-1 26 -34 26h-30v21l27 87h63l-21 -69h10q22 0 37 -18t15 -46v-15z" />
<glyph unicode="&#xb9;" horiz-adv-x="390" d="M331 181h-252v66h92v279l-98 -39l-15 67l128 48h65v-355h80v-66z" />
<glyph unicode="&#xba;" d="M431 0h-342v73h342v-73zM351 390v103q0 50 -24 76.5t-67 26.5t-67 -27t-24 -77v-102q0 -50 24 -77t67 -27t67 27t24 77zM436 485v-88q0 -182 -176 -182q-86 0 -131 46t-45 136v88q0 182 176 182t176 -182z" />
<glyph unicode="&#xbb;" horiz-adv-x="488" d="M235 488h88l100 -170l-100 -170h-88l93 170zM65 488h88l100 -170l-100 -170h-88l93 170z" />
<glyph unicode="&#xbc;" horiz-adv-x="1019" d="M394 0h-83l305 601h83zM766 421h72l-93 -267h109v132h76v-132h56v-64h-56v-90h-77v90h-171l-20 42zM331 181h-252v66h92v279l-98 -39l-15 67l128 48h65v-355h80v-66z" />
<glyph unicode="&#xbd;" horiz-adv-x="1011" d="M394 0h-83l305 601h83zM795 365q-47 0 -98 -17v65q59 16 98 16q148 0 148 -108v-18q0 -35 -13.5 -64.5t-49.5 -68.5l-97 -104h161v-66h-256v60l148 170q19 22 25 36t6 36v16q0 25 -16.5 36t-55.5 11zM331 181h-252v66h92v279l-98 -39l-15 67l128 48h65v-355h80v-66z" />
<glyph unicode="&#xbe;" horiz-adv-x="1000" d="M375 0h-83l305 601h83zM747 421h72l-93 -267h109v132h76v-132h56v-64h-56v-90h-77v90h-171l-20 42zM169 549q-30 0 -95 -10v62q59 9 95 9q68 0 102.5 -28.5t34.5 -79.5v-7q0 -64 -60 -92q70 -28 70 -101v-7q0 -55 -38 -88.5t-107 -33.5q-38 0 -97 9v61q52 -8 99 -8 q64 0 64 56v13q0 33 -17.5 48.5t-58.5 15.5h-58v59h58q37 0 52.5 15t15.5 47v13q0 47 -60 47z" />
<glyph unicode="&#xbf;" horiz-adv-x="395" d="M244 -129q47 0 126 18v-70q-78 -16 -131 -16q-97 0 -140.5 35t-43.5 103v25q0 45 20 85.5t67 89.5l33 36q16 17 21.5 31.5t5.5 44.5v45h81v-32q0 -49 -7 -70t-33 -52l-58 -68q-27 -33 -36 -55t-9 -57v-22q0 -37 22.5 -54t81.5 -17zM185 436v29q0 45 56 45q55 0 55 -45 v-29q0 -46 -55 -46q-56 0 -56 46z" />
<glyph unicode="&#xc0;" horiz-adv-x="536" d="M429 0l-43 152h-241l-43 -152h-87l200 655h105l201 -655h-92zM266 577l-100 -349h198zM251 710l-85 119h89l66 -119h-70z" />
<glyph unicode="&#xc1;" horiz-adv-x="536" d="M429 0l-43 152h-241l-43 -152h-87l200 655h105l201 -655h-92zM266 577l-100 -349h198zM360 829l-85 -119h-70l66 119h89z" />
<glyph unicode="&#xc2;" horiz-adv-x="536" d="M429 0l-43 152h-241l-43 -152h-87l200 655h105l201 -655h-92zM266 577l-100 -349h198zM270 760l-140 -49v68l140 61l140 -61v-68z" />
<glyph unicode="&#xc3;" horiz-adv-x="536" d="M429 0l-43 152h-241l-43 -152h-87l200 655h105l201 -655h-92zM266 577l-100 -349h198zM410 740q-34 -30 -80 -30q-22 0 -62 12.5t-60 12.5q-15 0 -34.5 -6.5t-31.5 -12.5l-12 -6v70q34 30 80 30q29 0 67 -12.5t55 -12.5q15 0 34.5 6.5t31.5 12.5l12 6v-70z" />
<glyph unicode="&#xc4;" horiz-adv-x="536" d="M429 0l-43 152h-241l-43 -152h-87l200 655h105l201 -655h-92zM266 577l-100 -349h198zM235 783v-29q0 -44 -55 -44q-54 0 -54 44v29q0 45 54 45q55 0 55 -45zM407 783v-29q0 -44 -55 -44q-54 0 -54 44v29q0 45 54 45q55 0 55 -45z" />
<glyph unicode="&#xc5;" horiz-adv-x="536" d="M383 700q0 -64 -50 -88l188 -612h-92l-43 152h-241l-43 -152h-87l187 613q-49 24 -49 87q0 50 30.5 75t84.5 25q53 0 84 -25t31 -75zM266 577l-100 -349h198zM318 700q0 45 -50 45t-50 -45t50 -45t50 45z" />
<glyph unicode="&#xc6;" horiz-adv-x="774" d="M709 0h-345v152h-194l-66 -152h-89l293 655h401v-77h-260v-207h240v-76h-240v-218h260v-77zM203 228h161v369z" />
<glyph unicode="&#xc7;" horiz-adv-x="476" d="M349 -120q0 -77 -95 -77q-19 0 -49 5v53q28 -4 36 -4q41 0 41 24v13q-1 26 -34 26h-30v21l15 50q-88 9 -125.5 58t-37.5 141v275q0 104 49 153t164 49q37 0 138 -16l-2 -75q-88 16 -136 16q-68 0 -98 -28t-30 -93v-286q0 -65 29.5 -92.5t98.5 -27.5q48 0 136 16l2 -77 q-98 -15 -125 -16l-9 -29h10q22 0 37 -18t15 -46v-15z" />
<glyph unicode="&#xc8;" horiz-adv-x="485" d="M420 0h-345v655h345v-77h-260v-207h240v-76h-240v-218h260v-77zM245 710l-85 119h89l66 -119h-70z" />
<glyph unicode="&#xc9;" horiz-adv-x="485" d="M420 0h-345v655h345v-77h-260v-207h240v-76h-240v-218h260v-77zM350 829l-85 -119h-70l66 119h89z" />
<glyph unicode="&#xca;" horiz-adv-x="485" d="M420 0h-345v655h345v-77h-260v-207h240v-76h-240v-218h260v-77zM264 760l-140 -49v68l140 61l140 -61v-68z" />
<glyph unicode="&#xcb;" horiz-adv-x="485" d="M420 0h-345v655h345v-77h-260v-207h240v-76h-240v-218h260v-77zM212 783v-29q0 -44 -55 -44q-54 0 -54 44v29q0 45 54 45q55 0 55 -45zM384 783v-29q0 -44 -55 -44q-54 0 -54 44v29q0 45 54 45q55 0 55 -45z" />
<glyph unicode="&#xcc;" horiz-adv-x="235" d="M160 0h-85v655h85v-655zM102 710l-85 119h89l66 -119h-70z" />
<glyph unicode="&#xcd;" horiz-adv-x="235" d="M160 0h-85v655h85v-655zM210 829l-85 -119h-70l66 119h89z" />
<glyph unicode="&#xce;" horiz-adv-x="235" d="M160 0h-85v655h85v-655zM116 760l-140 -49v68l140 61l140 -61v-68z" />
<glyph unicode="&#xcf;" horiz-adv-x="235" d="M160 0h-85v655h85v-655zM83 783v-29q0 -44 -55 -44q-54 0 -54 44v29q0 45 54 45q55 0 55 -45zM255 783v-29q0 -44 -55 -44q-54 0 -54 44v29q0 45 54 45q55 0 55 -45z" />
<glyph unicode="&#xd0;" horiz-adv-x="571" d="M75 -6v309h-70v70h70v290q90 4 183 4q119 0 183.5 -67.5t64.5 -194.5v-164q0 -122 -64.5 -187.5t-188.5 -65.5q-85 0 -178 6zM160 593v-220h135v-70h-135v-236q58 -6 93 -6q77 0 122.5 44.5t45.5 128.5v177q0 91 -44 137.5t-124 46.5q-31 0 -93 -2z" />
<glyph unicode="&#xd1;" horiz-adv-x="582" d="M507 0h-132l-216 553v-553h-84v655h136l212 -553v553h84v-655zM454 740q-34 -30 -80 -30q-22 0 -62 12.5t-60 12.5q-15 0 -34.5 -6.5t-31.5 -12.5l-12 -6v70q34 30 80 30q29 0 67 -12.5t55 -12.5q15 0 34.5 6.5t31.5 12.5l12 6v-70z" />
<glyph unicode="&#xd2;" horiz-adv-x="576" d="M155 462v-268q0 -131 133 -131t133 131v267q0 131 -133 131t-133 -130zM70 203v249q0 215 218 215t218 -215v-249q0 -215 -218 -215t-218 215zM271 710l-85 119h89l66 -119h-70z" />
<glyph unicode="&#xd3;" horiz-adv-x="576" d="M155 462v-268q0 -131 133 -131t133 131v267q0 131 -133 131t-133 -130zM70 203v249q0 215 218 215t218 -215v-249q0 -215 -218 -215t-218 215zM380 829l-85 -119h-70l66 119h89z" />
<glyph unicode="&#xd4;" horiz-adv-x="576" d="M155 462v-268q0 -131 133 -131t133 131v267q0 131 -133 131t-133 -130zM70 203v249q0 215 218 215t218 -215v-249q0 -215 -218 -215t-218 215zM288 760l-140 -49v68l140 61l140 -61v-68z" />
<glyph unicode="&#xd5;" horiz-adv-x="576" d="M155 462v-268q0 -131 133 -131t133 131v267q0 131 -133 131t-133 -130zM70 203v249q0 215 218 215t218 -215v-249q0 -215 -218 -215t-218 215zM428 740q-34 -30 -80 -30q-22 0 -62 12.5t-60 12.5q-15 0 -34.5 -6.5t-31.5 -12.5l-12 -6v70q34 30 80 30q29 0 67 -12.5 t55 -12.5q15 0 34.5 6.5t31.5 12.5l12 6v-70z" />
<glyph unicode="&#xd6;" horiz-adv-x="576" d="M155 462v-268q0 -131 133 -131t133 131v267q0 131 -133 131t-133 -130zM70 203v249q0 215 218 215t218 -215v-249q0 -215 -218 -215t-218 215zM257 783v-29q0 -44 -55 -44q-54 0 -54 44v29q0 45 54 45q55 0 55 -45zM429 783v-29q0 -44 -55 -44q-54 0 -54 44v29 q0 45 54 45q55 0 55 -45z" />
<glyph unicode="&#xd7;" d="M417 408l-106 -106l108 -108l-54 -53l-108 107l-105 -105l-50 50l105 105l-107 108l53 54l108 -108l106 106z" />
<glyph unicode="&#xd8;" horiz-adv-x="576" d="M120 -50h-85l68 118q-33 50 -33 135v249q0 215 218 215q80 0 130 -29l38 67h85l-67 -120q32 -51 32 -133v-249q0 -215 -218 -215q-78 0 -129 28zM155 462v-268q0 -21 3 -39l225 407q-33 30 -95 30q-133 0 -133 -130zM421 461q0 19 -3 36l-224 -406q32 -28 94 -28 q133 0 133 131v267z" />
<glyph unicode="&#xd9;" horiz-adv-x="576" d="M416 655h85v-448q0 -106 -54 -162.5t-159 -56.5q-104 0 -158.5 55t-54.5 162v450h85v-461q0 -64 33 -97.5t95 -33.5t95 33.5t33 97.5v461zM283 710l-85 119h89l66 -119h-70z" />
<glyph unicode="&#xda;" horiz-adv-x="576" d="M416 655h85v-448q0 -106 -54 -162.5t-159 -56.5q-104 0 -158.5 55t-54.5 162v450h85v-461q0 -64 33 -97.5t95 -33.5t95 33.5t33 97.5v461zM395 829l-85 -119h-70l66 119h89z" />
<glyph unicode="&#xdb;" horiz-adv-x="576" d="M416 655h85v-448q0 -106 -54 -162.5t-159 -56.5q-104 0 -158.5 55t-54.5 162v450h85v-461q0 -64 33 -97.5t95 -33.5t95 33.5t33 97.5v461zM298 760l-140 -49v68l140 61l140 -61v-68z" />
<glyph unicode="&#xdc;" horiz-adv-x="576" d="M416 655h85v-448q0 -106 -54 -162.5t-159 -56.5q-104 0 -158.5 55t-54.5 162v450h85v-461q0 -64 33 -97.5t95 -33.5t95 33.5t33 97.5v461zM265 783v-29q0 -44 -55 -44q-54 0 -54 44v29q0 45 54 45q55 0 55 -45zM437 783v-29q0 -44 -55 -44q-54 0 -54 44v29q0 45 54 45 q55 0 55 -45z" />
<glyph unicode="&#xdd;" horiz-adv-x="495" d="M480 655l-190 -430v-225h-85v225l-190 430h97l136 -340l137 340h95zM347 829l-85 -119h-70l66 119h89z" />
<glyph unicode="&#xde;" horiz-adv-x="560" d="M160 0h-85v655h85v-122q48 6 88 6q231 0 231 -182v-24q0 -93 -55.5 -144t-167.5 -51q-45 0 -96 8v-146zM160 463v-244q60 -8 92 -8q142 0 142 126v17q0 114 -148 114q-34 0 -86 -5z" />
<glyph unicode="&#xdf;" horiz-adv-x="486" d="M160 0h-85v534q0 85 37.5 123t124.5 38q70 0 112 -35.5t42 -93.5v-27q0 -28 -13.5 -53t-29.5 -39.5t-29.5 -32.5t-13.5 -35v-15q0 -28 22 -41l47 -28q87 -43 87 -125v-33q0 -82 -31 -115.5t-109 -33.5q-25 0 -98 15l2 75q66 -15 96 -15q53 0 53 66v31q0 40 -38 62l-48 27 q-37 21 -51 44.5t-14 63.5v19q0 28 13 51t28.5 35.5t28.5 32.5t13 43v28q0 57 -75 57q-38 0 -54.5 -18t-16.5 -61v-544z" />
<glyph unicode="&#xe0;" horiz-adv-x="469" d="M394 339v-339h-81v78q-59 -90 -131 -90q-58 0 -92.5 40t-34.5 109v28q0 61 41 101t110 40q38 0 103 -13v53q0 43 -19.5 62t-60.5 19q-47 0 -135 -15v73q94 15 135 15q86 0 125.5 -38.5t39.5 -122.5zM201 64q58 0 108 90v77q-38 7 -82 7q-41 0 -63.5 -22t-22.5 -62v-11 q0 -37 17 -58t43 -21zM249 546l-95 139h85l76 -139h-66z" />
<glyph unicode="&#xe1;" horiz-adv-x="469" d="M394 339v-339h-81v78q-59 -90 -131 -90q-58 0 -92.5 40t-34.5 109v28q0 61 41 101t110 40q38 0 103 -13v53q0 43 -19.5 62t-60.5 19q-47 0 -135 -15v73q94 15 135 15q86 0 125.5 -38.5t39.5 -122.5zM201 64q58 0 108 90v77q-38 7 -82 7q-41 0 -63.5 -22t-22.5 -62v-11 q0 -37 17 -58t43 -21zM345 685l-95 -139h-66l76 139h85z" />
<glyph unicode="&#xe2;" horiz-adv-x="469" d="M394 339v-339h-81v78q-59 -90 -131 -90q-58 0 -92.5 40t-34.5 109v28q0 61 41 101t110 40q38 0 103 -13v53q0 43 -19.5 62t-60.5 19q-47 0 -135 -15v73q94 15 135 15q86 0 125.5 -38.5t39.5 -122.5zM201 64q58 0 108 90v77q-38 7 -82 7q-41 0 -63.5 -22t-22.5 -62v-11 q0 -37 17 -58t43 -21zM238 611l-130 -65v70l130 74l130 -74v-70z" />
<glyph unicode="&#xe3;" horiz-adv-x="469" d="M394 339v-339h-81v78q-59 -90 -131 -90q-58 0 -92.5 40t-34.5 109v28q0 61 41 101t110 40q38 0 103 -13v53q0 43 -19.5 62t-60.5 19q-47 0 -135 -15v73q94 15 135 15q86 0 125.5 -38.5t39.5 -122.5zM201 64q58 0 108 90v77q-38 7 -82 7q-41 0 -63.5 -22t-22.5 -62v-11 q0 -37 17 -58t43 -21zM371 615q-33 -30 -80 -30q-20 0 -52 12.5t-50 12.5q-16 0 -41 -8.5t-37 -16.5v70q9 9 32 19.5t48 10.5q27 0 57 -12.5t45 -12.5q17 0 43 9t35 16v-70z" />
<glyph unicode="&#xe4;" horiz-adv-x="469" d="M394 339v-339h-81v78q-59 -90 -131 -90q-58 0 -92.5 40t-34.5 109v28q0 61 41 101t110 40q38 0 103 -13v53q0 43 -19.5 62t-60.5 19q-47 0 -135 -15v73q94 15 135 15q86 0 125.5 -38.5t39.5 -122.5zM201 64q58 0 108 90v77q-38 7 -82 7q-41 0 -63.5 -22t-22.5 -62v-11 q0 -37 17 -58t43 -21zM201 650v-29q0 -44 -55 -44q-54 0 -54 44v29q0 45 54 45q55 0 55 -45zM373 650v-29q0 -44 -55 -44q-54 0 -54 44v29q0 45 54 45q55 0 55 -45z" />
<glyph unicode="&#xe5;" horiz-adv-x="469" d="M394 339v-339h-81v78q-59 -90 -131 -90q-58 0 -92.5 40t-34.5 109v28q0 61 41 101t110 40q38 0 103 -13v53q0 43 -19.5 62t-60.5 19q-47 0 -135 -15v73q94 15 135 15q86 0 125.5 -38.5t39.5 -122.5zM201 64q58 0 108 90v77q-38 7 -82 7q-41 0 -63.5 -22t-22.5 -62v-11 q0 -37 17 -58t43 -21zM356 625q0 -50 -30.5 -75t-84.5 -25q-53 0 -84 25t-31 75t30.5 75t84.5 25q53 0 84 -25t31 -75zM291 625q0 45 -50 45t-50 -45t50 -45t50 45z" />
<glyph unicode="&#xe6;" horiz-adv-x="725" d="M655 218h-261v-59q0 -50 25.5 -73t78.5 -23q52 0 142 18l-4 -75q-99 -18 -138 -18q-139 0 -168 102q-64 -102 -148 -102q-58 0 -92.5 40t-34.5 109v28q0 61 41 101t110 40q38 0 103 -13v58q0 42 -19 60.5t-61 18.5q-47 0 -135 -15v70q94 15 135 15q95 0 131 -57 q37 57 122 57q84 0 128.5 -46t44.5 -133v-103zM309 154v77q-38 7 -82 7q-41 0 -63.5 -22t-22.5 -62v-11q0 -37 16.5 -58t43.5 -21q58 0 108 90zM394 339v-51h176v43q0 47 -23.5 72.5t-64.5 25.5q-40 0 -63.5 -23t-24.5 -67z" />
<glyph unicode="&#xe7;" horiz-adv-x="401" d="M304 -120q0 -77 -95 -77q-19 0 -49 5v53q28 -4 36 -4q41 0 41 24v13q-1 26 -34 26h-30v21l16 54q-119 26 -119 175v148q0 182 181 182q35 0 98 -10l-2 -75q-58 10 -96 10q-47 0 -71.5 -26t-24.5 -74v-161q0 -101 96 -101q38 0 96 10l2 -75q-63 -10 -98 -10l-9 -29h10 q22 0 37 -18t15 -46v-15z" />
<glyph unicode="&#xe8;" horiz-adv-x="467" d="M70 164v157q0 179 170 179q84 0 128 -46t44 -133v-103h-257v-59q0 -51 24 -73.5t77 -22.5q51 0 141 18l-4 -75q-99 -18 -137 -18q-99 0 -142.5 43t-43.5 133zM155 334v-48h172v45q0 48 -23.5 73t-63.5 25q-39 0 -62 -24.5t-23 -70.5zM250 546l-95 139h85l76 -139h-66z " />
<glyph unicode="&#xe9;" horiz-adv-x="467" d="M70 164v157q0 179 170 179q84 0 128 -46t44 -133v-103h-257v-59q0 -51 24 -73.5t77 -22.5q51 0 141 18l-4 -75q-99 -18 -137 -18q-99 0 -142.5 43t-43.5 133zM155 334v-48h172v45q0 48 -23.5 73t-63.5 25q-39 0 -62 -24.5t-23 -70.5zM328 685l-95 -139h-66l76 139h85z " />
<glyph unicode="&#xea;" horiz-adv-x="467" d="M70 164v157q0 179 170 179q84 0 128 -46t44 -133v-103h-257v-59q0 -51 24 -73.5t77 -22.5q51 0 141 18l-4 -75q-99 -18 -137 -18q-99 0 -142.5 43t-43.5 133zM155 334v-48h172v45q0 48 -23.5 73t-63.5 25q-39 0 -62 -24.5t-23 -70.5zM243 611l-130 -65v70l130 74l130 -74 v-70z" />
<glyph unicode="&#xeb;" horiz-adv-x="467" d="M70 164v157q0 179 170 179q84 0 128 -46t44 -133v-103h-257v-59q0 -51 24 -73.5t77 -22.5q51 0 141 18l-4 -75q-99 -18 -137 -18q-99 0 -142.5 43t-43.5 133zM155 334v-48h172v45q0 48 -23.5 73t-63.5 25q-39 0 -62 -24.5t-23 -70.5zM213 650v-29q0 -44 -55 -44 q-54 0 -54 44v29q0 45 54 45q55 0 55 -45zM385 650v-29q0 -44 -55 -44q-54 0 -54 44v29q0 45 54 45q55 0 55 -45z" />
<glyph unicode="&#xec;" horiz-adv-x="245" d="M165 0h-85v488h85v-488zM133 546l-95 139h85l76 -139h-66z" />
<glyph unicode="&#xed;" horiz-adv-x="245" d="M165 0h-85v488h85v-488zM209 685l-95 -139h-66l76 139h85z" />
<glyph unicode="&#xee;" horiz-adv-x="245" d="M165 0h-85v488h85v-488zM123 611l-130 -65v70l130 74l130 -74v-70z" />
<glyph unicode="&#xef;" horiz-adv-x="245" d="M165 0h-85v488h85v-488zM89 650v-29q0 -44 -55 -44q-54 0 -54 44v29q0 45 54 45q55 0 55 -45zM261 650v-29q0 -44 -55 -44q-54 0 -54 44v29q0 45 54 45q55 0 55 -45z" />
<glyph unicode="&#xf0;" horiz-adv-x="497" d="M115 631v64q140 0 218 -79l99 29v-66l-59 -17q48 -87 48 -222v-170q0 -88 -44 -135t-129 -47q-90 0 -131.5 41t-41.5 128v115q0 82 35 124.5t98 42.5q73 0 128 -78v25q0 88 -42 153l-117 -34v66l68 20q-55 40 -130 40zM225 363q-65 0 -65 -103v-112q0 -89 88 -89t88 89 v133q-49 82 -111 82z" />
<glyph unicode="&#xf1;" horiz-adv-x="491" d="M160 0h-85v488h80v-73q55 85 133 85q64 0 98.5 -43.5t34.5 -123.5v-333h-85v321q0 100 -65 100q-29 0 -59 -22t-52 -60v-339zM378 615q-33 -30 -80 -30q-20 0 -52 12.5t-50 12.5q-16 0 -41 -8.5t-37 -16.5v70q9 9 32 19.5t48 10.5q27 0 57 -12.5t45 -12.5q17 0 43 9 t35 16v-70z" />
<glyph unicode="&#xf2;" horiz-adv-x="492" d="M337 163v163q0 50 -24 76.5t-67 26.5t-67 -27t-24 -77v-162q0 -50 24 -77t67 -27t67 27t24 77zM422 318v-148q0 -182 -176 -182t-176 182v148q0 182 176 182t176 -182zM252 546l-95 139h85l76 -139h-66z" />
<glyph unicode="&#xf3;" horiz-adv-x="492" d="M337 163v163q0 50 -24 76.5t-67 26.5t-67 -27t-24 -77v-162q0 -50 24 -77t67 -27t67 27t24 77zM422 318v-148q0 -182 -176 -182t-176 182v148q0 182 176 182t176 -182zM328 685l-95 -139h-66l76 139h85z" />
<glyph unicode="&#xf4;" horiz-adv-x="492" d="M337 163v163q0 50 -24 76.5t-67 26.5t-67 -27t-24 -77v-162q0 -50 24 -77t67 -27t67 27t24 77zM422 318v-148q0 -182 -176 -182t-176 182v148q0 182 176 182t176 -182zM243 611l-130 -65v70l130 74l130 -74v-70z" />
<glyph unicode="&#xf5;" horiz-adv-x="492" d="M337 163v163q0 50 -24 76.5t-67 26.5t-67 -27t-24 -77v-162q0 -50 24 -77t67 -27t67 27t24 77zM422 318v-148q0 -182 -176 -182t-176 182v148q0 182 176 182t176 -182zM373 615q-33 -30 -80 -30q-20 0 -52 12.5t-50 12.5q-16 0 -41 -8.5t-37 -16.5v70q9 9 32 19.5 t48 10.5q27 0 57 -12.5t45 -12.5q17 0 43 9t35 16v-70z" />
<glyph unicode="&#xf6;" horiz-adv-x="492" d="M337 163v163q0 50 -24 76.5t-67 26.5t-67 -27t-24 -77v-162q0 -50 24 -77t67 -27t67 27t24 77zM422 318v-148q0 -182 -176 -182t-176 182v148q0 182 176 182t176 -182zM217 650v-29q0 -44 -55 -44q-54 0 -54 44v29q0 45 54 45q55 0 55 -45zM389 650v-29q0 -44 -55 -44 q-54 0 -54 44v29q0 45 54 45q55 0 55 -45z" />
<glyph unicode="&#xf7;" d="M437 265h-354v70h354v-70zM309 171v-17q0 -43 -49 -43q-48 0 -48 43v17q0 44 48 44q49 0 49 -44zM309 445v-17q0 -43 -49 -43q-48 0 -48 43v17q0 44 48 44q49 0 49 -44z" />
<glyph unicode="&#xf8;" horiz-adv-x="492" d="M94 -51h-88l82 123q-18 40 -18 98v148q0 182 176 182q66 0 108 -28l44 66h88l-82 -124q18 -40 18 -96v-148q0 -182 -176 -182q-65 0 -108 27zM155 163v-5l160 242q-23 29 -69 29q-43 0 -67 -27t-24 -77v-162zM337 163v163l-160 -239q24 -28 69 -28q43 0 67 27t24 77z" />
<glyph unicode="&#xf9;" horiz-adv-x="496" d="M336 488h85v-488h-80v70q-56 -82 -133 -82q-62 0 -97.5 42.5t-35.5 124.5v333h85v-318q0 -103 65 -103q63 0 111 81v340zM237 546l-95 139h85l76 -139h-66z" />
<glyph unicode="&#xfa;" horiz-adv-x="496" d="M336 488h85v-488h-80v70q-56 -82 -133 -82q-62 0 -97.5 42.5t-35.5 124.5v333h85v-318q0 -103 65 -103q63 0 111 81v340zM363 685l-95 -139h-66l76 139h85z" />
<glyph unicode="&#xfb;" horiz-adv-x="496" d="M336 488h85v-488h-80v70q-56 -82 -133 -82q-62 0 -97.5 42.5t-35.5 124.5v333h85v-318q0 -103 65 -103q63 0 111 81v340zM248 611l-130 -65v70l130 74l130 -74v-70z" />
<glyph unicode="&#xfc;" horiz-adv-x="496" d="M336 488h85v-488h-80v70q-56 -82 -133 -82q-62 0 -97.5 42.5t-35.5 124.5v333h85v-318q0 -103 65 -103q63 0 111 81v340zM215 650v-29q0 -44 -55 -44q-54 0 -54 44v29q0 45 54 45q55 0 55 -45zM387 650v-29q0 -44 -55 -44q-54 0 -54 44v29q0 45 54 45q55 0 55 -45z" />
<glyph unicode="&#xfd;" horiz-adv-x="450" d="M431 488l-224 -673h-85l64 185h-32l-139 488h93l105 -427l130 427h88zM338 685l-95 -139h-66l76 139h85z" />
<glyph unicode="&#xfe;" horiz-adv-x="490" d="M160 -185h-85v868h85v-259q53 76 127 76q63 0 98 -43t35 -124v-178q0 -78 -40.5 -122.5t-109.5 -44.5q-50 0 -110 35v-208zM270 424q-29 0 -58.5 -21.5t-51.5 -58.5v-245q45 -36 93 -36q82 0 82 104v154q0 103 -65 103z" />
<glyph unicode="&#xff;" horiz-adv-x="450" d="M431 488l-224 -673h-85l64 185h-32l-139 488h93l105 -427l130 427h88zM205 650v-29q0 -44 -55 -44q-54 0 -54 44v29q0 45 54 45q55 0 55 -45zM377 650v-29q0 -44 -55 -44q-54 0 -54 44v29q0 45 54 45q55 0 55 -45z" />
<glyph unicode="&#x127;" horiz-adv-x="496" d="M160 0h-85v553h-70v70h70v60h85v-60h120v-70h-120v-130q55 77 128 77q64 0 98.5 -43.5t34.5 -123.5v-333h-85v321q0 100 -65 100q-29 0 -59 -22t-52 -60v-339z" />
<glyph unicode="&#x128;" horiz-adv-x="235" d="M160 0h-85v655h85v-655zM256 740q-34 -30 -80 -30q-22 0 -62 12.5t-60 12.5q-15 0 -34.5 -6.5t-31.5 -12.5l-12 -6v70q34 30 80 30q29 0 67 -12.5t55 -12.5q15 0 34.5 6.5t31.5 12.5l12 6v-70z" />
<glyph unicode="&#x129;" horiz-adv-x="245" d="M165 0h-85v488h85v-488zM254 615q-33 -30 -80 -30q-20 0 -52 12.5t-50 12.5q-16 0 -41 -8.5t-37 -16.5v70q9 9 32 19.5t48 10.5q27 0 57 -12.5t45 -12.5q17 0 43 9t35 16v-70z" />
<glyph unicode="&#x131;" horiz-adv-x="245" d="M165 0h-85v488h85v-488z" />
<glyph unicode="&#x132;" horiz-adv-x="547" d="M160 0h-85v655h85v-655zM472 655v-516q0 -77 -36.5 -114t-116.5 -37q-43 0 -64 7v71q28 -5 68 -5q64 0 64 63v531h85z" />
<glyph unicode="&#x133;" horiz-adv-x="480" d="M165 0h-85v488h85v-488zM178 649v-29q0 -45 -56 -45q-55 0 -55 45v29q0 46 55 46q56 0 56 -46zM320 -53v541h85v-536q0 -75 -37 -112t-116 -37q-33 0 -60 6v71q44 -4 64 -4q64 0 64 71zM418 649v-29q0 -45 -56 -45q-55 0 -55 45v29q0 46 55 46q56 0 56 -46z" />
<glyph unicode="&#x134;" horiz-adv-x="323" d="M248 655v-516q0 -77 -36.5 -114t-116.5 -37q-43 0 -64 7v71q28 -5 68 -5q64 0 64 63v531h85zM198 760l-140 -49v68l140 61l140 -61v-68z" />
<glyph unicode="&#x135;" horiz-adv-x="235" d="M75 -53v541h85v-536q0 -75 -37 -112t-116 -37q-33 0 -60 6v71q44 -4 64 -4q64 0 64 71zM119 611l-130 -65v70l130 74l130 -74v-70z" />
<glyph unicode="&#x137;" horiz-adv-x="452" d="M281 -92v-26q0 -21 -8 -47l-22 -66h-51l17 76q-29 10 -29 38v25q0 16 12 26t32 10q49 0 49 -36zM160 0h-85v683h85v-409l160 214h95l-166 -214l178 -274h-102l-165 262v-262z" />
<glyph unicode="&#x138;" horiz-adv-x="452" d="M160 0h-85v488h85v-232l160 232h95l-166 -233l178 -255h-102l-165 244v-244z" />
<glyph unicode="&#x13f;" horiz-adv-x="445" d="M420 0h-345v655h85v-580h260v-75zM319 477v-29q0 -45 -56 -45q-55 0 -55 45v29q0 46 55 46q56 0 56 -46z" />
<glyph unicode="&#x140;" horiz-adv-x="329" d="M160 0h-85v683h85v-683zM319 477v-29q0 -45 -56 -45q-55 0 -55 45v29q0 46 55 46q56 0 56 -46z" />
<glyph unicode="&#x141;" horiz-adv-x="445" d="M5 268v76l70 19v292h85v-268l130 37v-76l-130 -37v-236h260v-75h-345v287z" />
<glyph unicode="&#x142;" horiz-adv-x="235" d="M160 0h-85v355l-90 -27v70l90 27v258h85v-233l90 28v-70l-90 -28v-380z" />
<glyph unicode="&#x143;" horiz-adv-x="582" d="M507 0h-132l-216 553v-553h-84v655h136l212 -553v553h84v-655zM416 829l-85 -119h-70l66 119h89z" />
<glyph unicode="&#x144;" horiz-adv-x="491" d="M160 0h-85v488h80v-73q55 85 133 85q64 0 98.5 -43.5t34.5 -123.5v-333h-85v321q0 100 -65 100q-29 0 -59 -22t-52 -60v-339zM333 685l-95 -139h-66l76 139h85z" />
<glyph unicode="&#x152;" horiz-adv-x="771" d="M706 0h-336q-40 -12 -92 -12q-104 0 -156 55.5t-52 159.5v249q0 104 52.5 159.5t151.5 55.5q54 0 96 -12h336v-77h-260v-207h240v-76h-240v-218h260v-77zM283 63q51 0 78 8v508q-30 13 -78 13q-62 0 -95 -33.5t-33 -96.5v-268q0 -63 32.5 -97t95.5 -34z" />
<glyph unicode="&#x153;" horiz-adv-x="743" d="M683 218h-261v-59q0 -50 25 -73t79 -23q52 0 142 18l-4 -75q-99 -18 -138 -18q-100 0 -148 60q-45 -60 -132 -60q-176 0 -176 182v148q0 182 174 182q87 0 134 -60q45 60 134 60q84 0 127.5 -46.5t43.5 -132.5v-103zM337 164v163q0 50 -24 76t-67 26t-67 -27t-24 -77 v-162q0 -50 24 -77t67 -27q42 0 66 25.5t25 73.5v6zM422 332v-44h176v43q0 47 -23.5 72.5t-64.5 25.5t-64.5 -25t-23.5 -72z" />
<glyph unicode="&#x154;" horiz-adv-x="548" d="M248 667q229 0 229 -174v-26q0 -55 -33 -102.5t-88 -68.5l167 -296h-95l-158 280h-19q-55 0 -91 2v-282h-85v663q112 4 173 4zM246 596q-32 0 -86 -2v-236q60 -4 89 -4q143 0 143 115v19q0 55 -34.5 81.5t-111.5 26.5zM353 829l-85 -119h-70l66 119h89z" />
<glyph unicode="&#x156;" horiz-adv-x="548" d="M319 -92v-26q0 -21 -8 -47l-22 -66h-51l17 76q-29 10 -29 38v25q0 16 12 26t32 10q49 0 49 -36zM248 667q229 0 229 -174v-26q0 -55 -33 -102.5t-88 -68.5l167 -296h-95l-158 280h-19q-55 0 -91 2v-282h-85v663q112 4 173 4zM246 596q-32 0 -86 -2v-236q60 -4 89 -4 q143 0 143 115v19q0 55 -34.5 81.5t-111.5 26.5z" />
<glyph unicode="&#x157;" horiz-adv-x="345" d="M166 -92v-26q0 -21 -8 -47l-22 -66h-51l17 76q-29 10 -29 38v25q0 16 12 26t32 10q49 0 49 -36zM160 0h-85v488h80v-73q55 85 133 85q14 0 22 -2v-96q-15 3 -39 3q-70 0 -111 -70v-335z" />
<glyph unicode="&#x158;" horiz-adv-x="548" d="M248 667q229 0 229 -174v-26q0 -55 -33 -102.5t-88 -68.5l167 -296h-95l-158 280h-19q-55 0 -91 2v-282h-85v663q112 4 173 4zM246 596q-32 0 -86 -2v-236q60 -4 89 -4q143 0 143 115v19q0 55 -34.5 81.5t-111.5 26.5zM121 841l140 -49l140 49v-68l-140 -61l-140 61v68z " />
<glyph unicode="&#x159;" horiz-adv-x="345" d="M160 0h-85v488h80v-73q55 85 133 85q14 0 22 -2v-96q-15 3 -39 3q-70 0 -111 -70v-335zM42 690l130 -65l130 65v-70l-130 -74l-130 74v70z" />
<glyph unicode="&#x237;" horiz-adv-x="235" d="M75 -53v541h85v-536q0 -75 -37 -112t-116 -37q-33 0 -60 6v71q44 -4 64 -4q64 0 64 71z" />
<glyph unicode="&#x2c6;" horiz-adv-x="460" d="M230 611l-130 -65v70l130 74l130 -74v-70z" />
<glyph unicode="&#x2c7;" horiz-adv-x="460" d="M100 690l130 -65l130 65v-70l-130 -74l-130 74v70z" />
<glyph unicode="&#x2da;" horiz-adv-x="380" d="M305 625q0 -50 -30.5 -75t-84.5 -25q-53 0 -84 25t-31 75t30.5 75t84.5 25q53 0 84 -25t31 -75zM240 625q0 45 -50 45t-50 -45t50 -45t50 45z" />
<glyph unicode="&#x2dc;" horiz-adv-x="460" d="M360 615q-33 -30 -80 -30q-20 0 -52 12.5t-50 12.5q-16 0 -41 -8.5t-37 -16.5v70q9 9 32 19.5t48 10.5q27 0 57 -12.5t45 -12.5q17 0 43 9t35 16v-70z" />
<glyph unicode="&#x307;" horiz-adv-x="251" d="M181 783v-29q0 -45 -56 -45q-55 0 -55 45v29q0 46 55 46q56 0 56 -46z" />
<glyph unicode="&#x2013;" horiz-adv-x="610" d="M545 263h-480v65h480v-65z" />
<glyph unicode="&#x2014;" horiz-adv-x="710" d="M645 263h-580v65h580v-65z" />
<glyph unicode="&#x2018;" horiz-adv-x="217" d="M59 527v30q0 28 7 50l30 89h59l-23 -99q34 -8 34 -42v-28q0 -44 -53 -44q-54 0 -54 44z" />
<glyph unicode="&#x2019;" horiz-adv-x="217" d="M162 651v-30q0 -28 -7 -50l-30 -89h-59l23 99q-34 8 -34 42v28q0 44 53 44q54 0 54 -44z" />
<glyph unicode="&#x201a;" horiz-adv-x="217" d="M162 61v-30q0 -28 -7 -50l-30 -89h-59l23 99q-34 8 -34 42v28q0 44 53 44q54 0 54 -44z" />
<glyph unicode="&#x201c;" horiz-adv-x="357" d="M59 526v30q0 28 7 50l30 89h59l-23 -99q34 -8 34 -42v-28q0 -44 -53 -44q-54 0 -54 44zM199 526v30q0 28 7 50l30 89h59l-23 -99q34 -8 34 -42v-28q0 -44 -53 -44q-54 0 -54 44z" />
<glyph unicode="&#x201d;" horiz-adv-x="357" d="M162 651v-30q0 -28 -7 -50l-30 -89h-59l23 99q-34 8 -34 42v28q0 44 53 44q54 0 54 -44zM302 651v-30q0 -28 -7 -50l-30 -89h-59l23 99q-34 8 -34 42v28q0 44 53 44q54 0 54 -44z" />
<glyph unicode="&#x201e;" horiz-adv-x="357" d="M162 61v-30q0 -28 -7 -50l-30 -89h-59l23 99q-34 8 -34 42v28q0 44 53 44q54 0 54 -44zM302 61v-30q0 -28 -7 -50l-30 -89h-59l23 99q-34 8 -34 42v28q0 44 53 44q54 0 54 -44z" />
<glyph unicode="&#x2022;" horiz-adv-x="235" d="M180 284v-33q0 -51 -63 -51q-62 0 -62 51v33q0 51 62 51q63 0 63 -51z" />
<glyph unicode="&#x2039;" horiz-adv-x="318" d="M165 488h88l-93 -170l93 -170h-88l-100 170z" />
<glyph unicode="&#x203a;" horiz-adv-x="318" d="M65 488h88l100 -170l-100 -170h-88l93 170z" />
<glyph unicode="&#x20ac;" d="M409 326h-194v-62h182l-15 -70h-167v-11q0 -64 27 -92t86 -28q56 0 136 16l2 -75q-88 -16 -138 -16q-106 0 -152 49.5t-46 152.5v4h-83l15 70h68v62h-77l15 70h62v15q0 103 46.5 152.5t151.5 49.5q50 0 138 -16l-2 -73q-80 16 -136 16q-60 0 -86.5 -28.5t-26.5 -92.5v-23 h209z" />
<glyph unicode="&#xe000;" horiz-adv-x="490" d="M0 490h490v-490h-490v490z" />
<glyph unicode="&#xf6c3;" horiz-adv-x="300" d="M181 51v-26q0 -21 -8 -47l-22 -66h-51l17 76q-29 10 -29 38v25q0 16 12 26t32 10q49 0 49 -36z" />
<glyph horiz-adv-x="385" d="M200 710l-85 119h89l66 -119h-70z" />
<glyph horiz-adv-x="431" d="M184 783v-29q0 -44 -55 -44q-54 0 -54 44v29q0 45 54 45q55 0 55 -45zM356 783v-29q0 -44 -55 -44q-54 0 -54 44v29q0 45 54 45q55 0 55 -45z" />
<glyph horiz-adv-x="385" d="M270 829l-85 -119h-70l66 119h89z" />
<glyph horiz-adv-x="460" d="M230 760l-140 -49v68l140 61l140 -61v-68z" />
<glyph horiz-adv-x="460" d="M90 841l140 -49l140 49v-68l-140 -61l-140 61v68z" />
<glyph horiz-adv-x="380" d="M305 700q0 -50 -30.5 -75t-84.5 -25q-53 0 -84 25t-31 75t30.5 75t84.5 25q53 0 84 -25t31 -75zM240 700q0 45 -50 45t-50 -45t50 -45t50 45z" />
<glyph horiz-adv-x="460" d="M370 740q-34 -30 -80 -30q-22 0 -62 12.5t-60 12.5q-15 0 -34.5 -6.5t-31.5 -12.5l-12 -6v70q34 30 80 30q29 0 67 -12.5t55 -12.5q15 0 34.5 6.5t31.5 12.5l12 6v-70z" />
<glyph horiz-adv-x="251" d="M181 783v-29q0 -45 -56 -45q-55 0 -55 45v29q0 46 55 46q56 0 56 -46z" />
<glyph horiz-adv-x="864" d="M720 0h-576v576h288v-288h288v-288zM720 432h-144v144h144v-144z" />
</font>
</defs>
</svg>
